<svg width="320" height="180" viewBox="0 0 320 180" fill="none" xmlns="http://www.w3.org/2000/svg">
<path d="M67.3643 108.501H119C122.314 108.501 125 111.187 125 114.501C125 117.815 122.314 120.501 119 120.501H74.2506C70.0512 120.501 66.1387 118.323 63.913 114.762C62.2139 112.043 64.1584 108.501 67.3643 108.501Z" fill="url(#paint0_linear_2770_4726)"/>
<path opacity="0.5" d="M118.994 120.501H74.1447C71.3148 120.501 68.6214 119.504 66.5 117.751H124.038C122.97 119.406 121.11 120.501 118.994 120.501Z" fill="#407AEA"/>
<path d="M85.4943 165.751H38C32.4772 165.751 28 161.274 28 155.751C28 150.228 32.4772 145.751 38 145.751H85.4943L122.719 69.2327C125.372 63.7807 126.75 57.7971 126.75 51.7341V24.501C126.75 18.9781 131.227 14.501 136.75 14.501H194V60.501L139 154.5H131V165.751H85.4943Z" fill="url(#paint1_linear_2770_4726)"/>
<path opacity="0.5" d="M140.5 22.854V30.0871C140.5 35.6099 144.977 40.0871 150.5 40.0871H163.318C168.841 40.0871 173.318 35.6099 173.318 30.0871V22.854C173.318 19.3629 175.378 16.2897 178.5 14.501H145.682C142.56 16.2897 140.5 19.3629 140.5 22.854Z" fill="#D5FFFA"/>
<path opacity="0.5" d="M85.427 165.751H37.9327C34.0285 165.751 30.6468 163.514 29 160.251H130.933V165.751H85.427Z" fill="#1513A0"/>
<path fill-rule="evenodd" clip-rule="evenodd" d="M194.25 14.501C199.773 14.501 204.25 18.9781 204.25 24.501V51.7341C204.25 60.8285 202.183 69.804 198.204 77.982L160.979 154.5C157.631 161.383 150.648 165.751 142.994 165.751H95.5C89.9772 165.751 85.5 161.274 85.5 155.751C85.5 150.228 89.9772 145.751 95.5 145.751H142.994L180.219 69.2327C182.872 63.7807 184.25 57.7971 184.25 51.7341V24.501C184.25 18.9781 188.727 14.501 194.25 14.501Z" fill="url(#paint2_linear_2770_4726)"/>
<path d="M155.283 154.274C153.715 157.472 150.445 159.501 146.86 159.501H111.683C109.097 159.501 107 157.421 107 154.855C107 152.29 109.097 150.21 111.683 150.21H146.86L152.781 138.974C153.582 137.453 155.16 136.501 156.879 136.501C160.353 136.501 162.591 140.183 160.992 143.266L155.283 154.274Z" fill="url(#paint3_linear_2770_4726)"/>
<path d="M139.864 108.501H206.5C209.814 108.501 212.5 111.187 212.5 114.501C212.5 117.815 209.814 120.501 206.5 120.501H146.787C142.565 120.501 138.641 118.326 136.403 114.746C134.704 112.027 136.658 108.501 139.864 108.501Z" fill="url(#paint4_linear_2770_4726)"/>
<path opacity="0.5" d="M206.494 120.501H146.645C143.815 120.501 141.121 119.504 139 117.751H211.538C210.47 119.406 208.61 120.501 206.494 120.501Z" fill="#407AEA"/>
<path d="M172.994 165.751H125.5C119.977 165.751 115.5 161.274 115.5 155.751C115.5 150.228 119.977 145.751 125.5 145.751H172.994L210.219 69.2327C212.872 63.7807 214.25 57.7971 214.25 51.7341V24.501C214.25 18.9781 218.727 14.501 224.25 14.501H281.5V60.501L226.5 154.5H218.5V165.751H172.994Z" fill="url(#paint5_linear_2770_4726)"/>
<path d="M172.994 165.751H125.5C119.977 165.751 115.5 161.274 115.5 155.751C115.5 150.228 119.977 145.751 125.5 145.751H172.994L210.219 69.2327C212.872 63.7807 214.25 57.7971 214.25 51.7341V24.501C214.25 18.9781 218.727 14.501 224.25 14.501H281.5V60.501L226.5 154.5H218.5V165.751H172.994Z" fill="url(#paint6_linear_2770_4726)"/>
<path opacity="0.5" d="M228 22.854V30.0871C228 35.6099 232.477 40.0871 238 40.0871H250.818C256.341 40.0871 260.818 35.6099 260.818 30.0871V22.854C260.818 19.3629 262.878 16.2897 266 14.501H233.182C230.06 16.2897 228 19.3629 228 22.854Z" fill="#D5FFFA"/>
<path opacity="0.5" d="M172.927 165.751H125.433C121.528 165.751 118.147 163.514 116.5 160.251H218.433V165.751H172.927Z" fill="#1513A0"/>
<path fill-rule="evenodd" clip-rule="evenodd" d="M281.75 14.501C287.273 14.501 291.75 18.9781 291.75 24.501V51.7341C291.75 60.8285 289.683 69.804 285.704 77.982L248.479 154.5C245.131 161.383 238.148 165.751 230.494 165.751H183C177.477 165.751 173 161.274 173 155.751C173 150.228 177.477 145.751 183 145.751H230.494L267.719 69.2327C270.372 63.7807 271.75 57.7971 271.75 51.7341V24.501C271.75 18.9781 276.227 14.501 281.75 14.501Z" fill="url(#paint7_linear_2770_4726)"/>
<path fill-rule="evenodd" clip-rule="evenodd" d="M281.75 14.501C287.273 14.501 291.75 18.9781 291.75 24.501V51.7341C291.75 60.8285 289.683 69.804 285.704 77.982L248.479 154.5C245.131 161.383 238.148 165.751 230.494 165.751H183C177.477 165.751 173 161.274 173 155.751C173 150.228 177.477 145.751 183 145.751H230.494L267.719 69.2327C270.372 63.7807 271.75 57.7971 271.75 51.7341V24.501C271.75 18.9781 276.227 14.501 281.75 14.501Z" fill="url(#paint8_linear_2770_4726)"/>
<path d="M242.783 154.274C241.215 157.472 237.945 159.501 234.36 159.501H199.183C196.597 159.501 194.5 157.421 194.5 154.855C194.5 152.29 196.597 150.21 199.183 150.21H234.36L240.281 138.974C241.082 137.453 242.66 136.501 244.379 136.501C247.853 136.501 250.091 140.183 248.492 143.266L242.783 154.274Z" fill="url(#paint9_linear_2770_4726)"/>
<path d="M204.864 108.501H256.5C259.814 108.501 262.5 111.187 262.5 114.501C262.5 117.815 259.814 120.501 256.5 120.501H211.751C207.551 120.501 203.639 118.323 201.413 114.762C199.714 112.043 201.658 108.501 204.864 108.501Z" fill="url(#paint10_linear_2770_4726)"/>
<path opacity="0.5" d="M256.5 120.501H211.651C208.821 120.501 206.128 119.504 204.006 117.751H261.544C260.476 119.406 258.616 120.501 256.5 120.501Z" fill="#407AEA"/>
<defs>
<linearGradient id="paint0_linear_2770_4726" x1="86.4062" y1="108.501" x2="86.4062" y2="120.501" gradientUnits="userSpaceOnUse">
<stop stop-color="#BAECF7"/>
<stop offset="1" stop-color="#84DDF1"/>
</linearGradient>
<linearGradient id="paint1_linear_2770_4726" x1="116" y1="14.501" x2="116" y2="165.751" gradientUnits="userSpaceOnUse">
<stop stop-color="#5CD6C0"/>
<stop offset="0.567708" stop-color="#70F2F2"/>
<stop offset="1" stop-color="#26AEF2"/>
</linearGradient>
<linearGradient id="paint2_linear_2770_4726" x1="144.875" y1="14.501" x2="144.875" y2="165.751" gradientUnits="userSpaceOnUse">
<stop stop-color="#4A7DDF"/>
<stop offset="1" stop-color="#3595F4"/>
</linearGradient>
<linearGradient id="paint3_linear_2770_4726" x1="160.25" y1="136.501" x2="106.25" y2="156.001" gradientUnits="userSpaceOnUse">
<stop stop-color="#CBD4E6"/>
<stop offset="0.321516" stop-color="#ACC5F6"/>
<stop offset="1" stop-color="#CBD4E6"/>
</linearGradient>
<linearGradient id="paint4_linear_2770_4726" x1="165" y1="108.501" x2="165" y2="120.501" gradientUnits="userSpaceOnUse">
<stop stop-color="#BAECF7"/>
<stop offset="1" stop-color="#84DDF1"/>
</linearGradient>
<linearGradient id="paint5_linear_2770_4726" x1="203.5" y1="14.501" x2="203.5" y2="165.751" gradientUnits="userSpaceOnUse">
<stop offset="0.0208333" stop-color="#9D8CF2"/>
<stop offset="0.567708" stop-color="#707FF2"/>
<stop offset="1" stop-color="#266AF2"/>
</linearGradient>
<linearGradient id="paint6_linear_2770_4726" x1="203.5" y1="14.501" x2="203.5" y2="165.751" gradientUnits="userSpaceOnUse">
<stop stop-color="#5CD6C0"/>
<stop offset="0.567708" stop-color="#70F2F2"/>
<stop offset="1" stop-color="#26AEF2"/>
</linearGradient>
<linearGradient id="paint7_linear_2770_4726" x1="232.375" y1="14.501" x2="232.375" y2="165.751" gradientUnits="userSpaceOnUse">
<stop stop-color="#4413A0"/>
<stop offset="0.520833" stop-color="#3D13A0"/>
<stop offset="1" stop-color="#1513A0"/>
</linearGradient>
<linearGradient id="paint8_linear_2770_4726" x1="232.375" y1="14.501" x2="232.375" y2="165.751" gradientUnits="userSpaceOnUse">
<stop stop-color="#4A7DDF"/>
<stop offset="1" stop-color="#3595F4"/>
</linearGradient>
<linearGradient id="paint9_linear_2770_4726" x1="247.75" y1="136.501" x2="193.75" y2="156.001" gradientUnits="userSpaceOnUse">
<stop stop-color="#CBD4E6"/>
<stop offset="0.321516" stop-color="#ACC5F6"/>
<stop offset="1" stop-color="#CBD4E6"/>
</linearGradient>
<linearGradient id="paint10_linear_2770_4726" x1="223.906" y1="108.501" x2="223.906" y2="120.501" gradientUnits="userSpaceOnUse">
<stop stop-color="#BAECF7"/>
<stop offset="1" stop-color="#84DDF1"/>
</linearGradient>
</defs>
</svg>
