<svg width="120" height="32" viewBox="0 0 120 32" fill="none" xmlns="http://www.w3.org/2000/svg">
<path d="M11.5754 11.6829C11.771 11.3683 12.229 11.3683 12.4246 11.6829L14.908 15.6771C14.9768 15.7878 15.0862 15.8672 15.2127 15.8985L19.7788 17.0261C20.1385 17.1149 20.28 17.5504 20.0412 17.8337L17.01 21.4298C16.9259 21.5295 16.8842 21.658 16.8936 21.788L17.2322 26.4791C17.2588 26.8486 16.8884 27.1178 16.5451 26.9782L12.1883 25.2066C12.0676 25.1575 11.9324 25.1575 11.8117 25.2066L7.45488 26.9782C7.11165 27.1178 6.74115 26.8486 6.76783 26.4791L7.10644 21.788C7.11583 21.658 7.07406 21.5295 6.99004 21.4298L3.95879 17.8337C3.71999 17.5504 3.86151 17.1149 4.22122 17.0261L8.78727 15.8985C8.91383 15.8672 9.02318 15.7878 9.09202 15.6771L11.5754 11.6829Z" fill="url(#paint0_linear_2671_1828)"/>
<path d="M35.5754 11.6829C35.771 11.3683 36.229 11.3683 36.4246 11.6829L38.908 15.6771C38.9768 15.7878 39.0862 15.8672 39.2127 15.8985L43.7788 17.0261C44.1385 17.1149 44.28 17.5504 44.0412 17.8337L41.01 21.4298C40.9259 21.5295 40.8842 21.658 40.8936 21.788L41.2322 26.4791C41.2588 26.8486 40.8884 27.1178 40.5451 26.9782L36.1883 25.2066C36.0676 25.1575 35.9324 25.1575 35.8117 25.2066L31.4549 26.9782C31.1117 27.1178 30.7412 26.8486 30.7678 26.4791L31.1064 21.788C31.1158 21.658 31.0741 21.5295 30.99 21.4298L27.9588 17.8337C27.72 17.5504 27.8615 17.1149 28.2212 17.0261L32.7873 15.8985C32.9138 15.8672 33.0232 15.7878 33.092 15.6771L35.5754 11.6829Z" fill="url(#paint1_linear_2671_1828)"/>
<path d="M59.5754 11.6829C59.771 11.3683 60.229 11.3683 60.4246 11.6829L62.908 15.6771C62.9768 15.7878 63.0862 15.8672 63.2127 15.8985L67.7788 17.0261C68.1385 17.1149 68.28 17.5504 68.0412 17.8337L65.01 21.4298C64.9259 21.5295 64.8842 21.658 64.8936 21.788L65.2322 26.4791C65.2588 26.8486 64.8884 27.1178 64.5451 26.9782L60.1883 25.2066C60.0676 25.1575 59.9324 25.1575 59.8117 25.2066L55.4549 26.9782C55.1117 27.1178 54.7412 26.8486 54.7678 26.4791L55.1064 21.788C55.1158 21.658 55.0741 21.5295 54.99 21.4298L51.9588 17.8337C51.72 17.5504 51.8615 17.1149 52.2212 17.0261L56.7873 15.8985C56.9138 15.8672 57.0232 15.7878 57.092 15.6771L59.5754 11.6829Z" fill="url(#paint2_linear_2671_1828)"/>
<path d="M83.5754 11.6829C83.771 11.3683 84.229 11.3683 84.4246 11.6829L86.908 15.6771C86.9768 15.7878 87.0862 15.8672 87.2127 15.8985L91.7788 17.0261C92.1385 17.1149 92.28 17.5504 92.0412 17.8337L89.01 21.4298C88.9259 21.5295 88.8842 21.658 88.8936 21.788L89.2322 26.4791C89.2588 26.8486 88.8884 27.1178 88.5451 26.9782L84.1883 25.2066C84.0676 25.1575 83.9324 25.1575 83.8117 25.2066L79.4549 26.9782C79.1117 27.1178 78.7412 26.8486 78.7678 26.4791L79.1064 21.788C79.1158 21.658 79.0741 21.5295 78.99 21.4298L75.9588 17.8337C75.72 17.5504 75.8615 17.1149 76.2212 17.0261L80.7873 15.8985C80.9138 15.8672 81.0232 15.7878 81.092 15.6771L83.5754 11.6829Z" fill="url(#paint3_linear_2671_1828)"/>
<path d="M107.575 11.6829C107.771 11.3683 108.229 11.3683 108.425 11.6829L110.908 15.6771C110.977 15.7878 111.086 15.8672 111.213 15.8985L115.779 17.0261C116.138 17.1149 116.28 17.5504 116.041 17.8337L113.01 21.4298C112.926 21.5295 112.884 21.658 112.894 21.788L113.232 26.4791C113.259 26.8486 112.888 27.1178 112.545 26.9782L108.188 25.2066C108.068 25.1575 107.932 25.1575 107.812 25.2066L103.455 26.9782C103.112 27.1178 102.741 26.8486 102.768 26.4791L103.106 21.788C103.116 21.658 103.074 21.5295 102.99 21.4298L99.9588 17.8337C99.72 17.5504 99.8615 17.1149 100.221 17.0261L104.787 15.8985C104.914 15.8672 105.023 15.7878 105.092 15.6771L107.575 11.6829Z" fill="url(#paint4_linear_2671_1828)"/>
<defs>
<linearGradient id="paint0_linear_2671_1828" x1="12" y1="11" x2="12" y2="29" gradientUnits="userSpaceOnUse">
<stop stop-color="#605DEC"/>
<stop offset="1" stop-color="#2A26D9"/>
</linearGradient>
<linearGradient id="paint1_linear_2671_1828" x1="36" y1="11" x2="36" y2="29" gradientUnits="userSpaceOnUse">
<stop stop-color="#605DEC"/>
<stop offset="1" stop-color="#2A26D9"/>
</linearGradient>
<linearGradient id="paint2_linear_2671_1828" x1="60" y1="11" x2="60" y2="29" gradientUnits="userSpaceOnUse">
<stop stop-color="#605DEC"/>
<stop offset="1" stop-color="#2A26D9"/>
</linearGradient>
<linearGradient id="paint3_linear_2671_1828" x1="84" y1="11" x2="84" y2="29" gradientUnits="userSpaceOnUse">
<stop stop-color="#605DEC"/>
<stop offset="1" stop-color="#2A26D9"/>
</linearGradient>
<linearGradient id="paint4_linear_2671_1828" x1="108" y1="11" x2="108" y2="29" gradientUnits="userSpaceOnUse">
<stop stop-color="#605DEC"/>
<stop offset="1" stop-color="#2A26D9"/>
</linearGradient>
</defs>
</svg>
