<svg width="33" height="33" viewBox="0 0 33 33" fill="none" xmlns="http://www.w3.org/2000/svg">
<path fill-rule="evenodd" clip-rule="evenodd" d="M7.34164 9.97881C7.07116 9.89093 6.7865 10.067 6.74428 10.3482L6.23764 13.723C6.16507 14.2064 6.45263 14.6715 6.91754 14.8225L24.1768 20.4304C24.9833 20.6924 25.8495 20.2511 26.1115 19.4446C26.3839 18.6063 25.8961 17.7113 25.044 17.4858L19.7324 16.0804L18.4043 6.70726C18.3492 6.31835 18.0773 5.9948 17.7038 5.87342C17.0778 5.67003 16.4245 6.09884 16.3621 6.75407L15.602 14.7384L8.34583 12.7958L7.64252 10.2921C7.6009 10.1439 7.488 10.0264 7.34164 9.97881ZM26.1777 23.4521H5.64771V25.0313H26.1777V23.4521Z" fill="#6E7491"/>
</svg>
