<svg width="2124" height="2596" viewBox="0 0 2124 2596" fill="none" xmlns="http://www.w3.org/2000/svg">
<path d="M1322.77 995.5H1418.65C1428.36 995.5 1436.58 1002.64 1437.82 1012.25C1440.77 1035.12 1445.5 1075.18 1445.5 1097.5C1445.5 1129.98 1445.5 1182.63 1417.53 1259.83C1409.89 1280.9 1398.16 1304.63 1388.32 1323.1C1383.41 1332.33 1378.97 1340.24 1375.76 1345.84C1374.15 1348.65 1372.86 1350.87 1371.96 1352.4C1371.57 1353.06 1371.26 1353.59 1371.03 1353.97C1370.82 1353.58 1370.54 1353.05 1370.2 1352.39C1369.39 1350.84 1368.23 1348.59 1366.77 1345.75C1363.87 1340.08 1359.82 1332.09 1355.24 1322.81C1346.09 1304.24 1334.85 1280.5 1326.46 1259.81C1296.5 1185.9 1296.5 1143.47 1296.5 1097.5C1296.5 1066.97 1300.91 1031.79 1303.87 1011.62C1305.25 1002.27 1313.31 995.5 1322.77 995.5Z" fill="#EAEBFF" stroke="#BFC8D9"/>
<path d="M801.229 995.5H705.346C695.641 995.5 687.425 1002.64 686.182 1012.25C683.227 1035.12 678.5 1075.18 678.5 1097.5C678.5 1129.98 678.498 1182.63 706.47 1259.83C714.106 1280.9 725.843 1304.63 735.678 1323.1C740.594 1332.33 745.032 1340.24 748.241 1345.84C749.846 1348.65 751.143 1350.87 752.039 1352.4C752.428 1353.06 752.743 1353.59 752.973 1353.97C753.178 1353.58 753.456 1353.05 753.802 1352.39C754.606 1350.84 755.772 1348.59 757.226 1345.75C760.132 1340.08 764.182 1332.09 768.757 1322.81C777.907 1304.24 789.151 1280.5 797.537 1259.81C827.502 1185.9 827.5 1143.47 827.5 1097.5C827.5 1066.97 823.088 1031.79 820.126 1011.62C818.754 1002.27 810.689 995.5 801.229 995.5Z" fill="#EAEBFF" stroke="#BFC8D9"/>
<path d="M1062 0.5C1066.02 0.5 1070.08 2.42708 1074.16 6.06348C1078.24 9.69941 1082.3 15.0103 1086.31 21.6875C1094.34 35.0405 1102.12 53.7668 1109.46 75.2246C1124.14 118.134 1137.01 171.86 1146.51 215.107C1160.81 280.194 1178.31 373.914 1185.41 412.488C1187.56 424.188 1188.62 436.029 1188.62 447.926V1065.01C1188.62 1067.38 1189.42 1069.69 1190.9 1071.54L1214.65 1101.4C1220.7 1109.01 1227.82 1115.69 1235.79 1121.25L1295.34 1162.8L1295.36 1162.82L1295.39 1162.83L2077.95 1589.43C2095.58 1600.66 2128.5 1639.11 2122.86 1704.68C2122.61 1707.59 2119.88 1709.48 2117.15 1708.57C2057.1 1688.65 1627.96 1556.53 1399.47 1486.38C1389.91 1483.44 1380.13 1482 1370.13 1482H1191.5V1986.5C1191.5 2036.18 1182.76 2099.21 1174.01 2149.83C1169.63 2175.14 1165.26 2197.35 1161.98 2213.22C1160.34 2221.16 1158.97 2227.51 1158.02 2231.88C1157.54 2234.07 1157.16 2235.76 1156.91 2236.9C1156.78 2237.47 1156.68 2237.91 1156.61 2238.2C1156.58 2238.34 1156.55 2238.45 1156.54 2238.53C1156.53 2238.56 1156.52 2238.59 1156.52 2238.61C1156.52 2238.62 1156.52 2238.62 1156.52 2238.62L1139.72 2302.37L1139.62 2302.72L1139.92 2302.92L1509.4 2548.86C1510.74 2550.88 1512.47 2555.61 1513.18 2563.26C1513.88 2570.88 1513.57 2581.37 1510.87 2594.88L1093.16 2481.02L1092.67 2480.88L1092.54 2481.37L1089.02 2494.75L1089.02 2494.75C1089.02 2494.75 1089.02 2494.75 1089.02 2494.75C1089.01 2494.75 1089.01 2494.76 1089.01 2494.77C1089.01 2494.79 1089 2494.81 1088.99 2494.84C1088.97 2494.91 1088.94 2495.01 1088.91 2495.14C1088.83 2495.4 1088.72 2495.79 1088.57 2496.28C1088.27 2497.26 1087.82 2498.67 1087.22 2500.35C1086.04 2503.73 1084.27 2508.22 1081.95 2512.71C1079.64 2517.2 1076.78 2521.67 1073.42 2525C1070.07 2528.34 1066.25 2530.5 1062 2530.5C1057.75 2530.5 1053.93 2528.34 1050.58 2525C1047.22 2521.67 1044.36 2517.2 1042.05 2512.71C1039.73 2508.22 1037.96 2503.73 1036.78 2500.35C1036.18 2498.67 1035.73 2497.26 1035.43 2496.28C1035.28 2495.79 1035.17 2495.4 1035.09 2495.14C1035.06 2495.01 1035.03 2494.91 1035.01 2494.84C1035 2494.81 1034.99 2494.79 1034.99 2494.77C1034.99 2494.76 1034.99 2494.75 1034.98 2494.75C1034.98 2494.75 1034.98 2494.75 1034.98 2494.75L1031.46 2481.37L1031.33 2480.89L1030.84 2481.02L611.646 2594.88C608.952 2581.37 608.639 2570.88 609.346 2563.26C610.054 2555.61 611.783 2550.88 613.124 2548.86L984.077 2302.92L984.376 2302.72L984.284 2302.37L967.483 2238.62C967.483 2238.62 967.483 2238.62 967.481 2238.61C967.477 2238.59 967.47 2238.56 967.462 2238.53C967.445 2238.45 967.421 2238.34 967.388 2238.2C967.322 2237.91 967.223 2237.47 967.095 2236.9C966.839 2235.76 966.463 2234.07 965.984 2231.88C965.028 2227.51 963.661 2221.16 962.021 2213.22C958.74 2197.35 954.367 2175.14 949.993 2149.83C941.244 2099.21 932.5 2036.18 932.5 1986.5V1482H753.87C743.874 1482 734.088 1483.44 724.53 1486.38C496.042 1556.53 66.9027 1688.65 6.84863 1708.57C4.11559 1709.48 1.39233 1707.59 1.1416 1704.68C-4.49974 1639.11 28.4212 1600.66 46.0508 1589.43L828.613 1162.83L828.638 1162.82L828.66 1162.8L888.209 1121.25C896.179 1115.69 903.3 1109.01 909.35 1101.4L933.102 1071.54C934.58 1069.69 935.385 1067.38 935.385 1065.01V447.025C935.385 435.724 936.34 424.456 938.305 413.329C945.028 375.253 962.172 280.485 977.487 215.114C987.738 171.361 1000.61 117.634 1015.1 74.8477C1022.35 53.4517 1029.99 34.8195 1037.9 21.5449C1041.85 14.9071 1045.86 9.63246 1049.9 6.02246C1053.94 2.41229 1057.98 0.5 1062 0.5Z" fill="url(#paint0_linear_2798_18217)" stroke="#BCBAF7"/>
<path opacity="0.4" d="M987.39 254.743L999.671 227.724C1002.92 220.584 1010.04 216 1017.88 216H1054.5C1056.71 216 1058.5 217.791 1058.5 220V250.513C1058.5 252.722 1056.71 254.507 1054.5 254.564C1042.17 254.883 1034.74 256.646 1021.75 258C1014.57 258.748 1010.68 259.224 1003.38 260C999.564 260.405 994.582 260.378 990.767 260.264C987.975 260.181 986.234 257.286 987.39 254.743Z" fill="white" fill-opacity="0.6" stroke="#7C8DB0" stroke-opacity="0.2"/>
<path opacity="0.4" d="M1137.11 254.743L1124.83 227.724C1121.58 220.584 1114.46 216 1106.62 216H1070C1067.79 216 1066 217.791 1066 220V250.513C1066 252.722 1067.79 254.507 1070 254.564C1082.33 254.883 1089.76 256.646 1102.75 258C1109.93 258.748 1113.82 259.224 1121.12 260C1124.94 260.405 1129.92 260.378 1133.73 260.264C1136.52 260.181 1138.27 257.286 1137.11 254.743Z" fill="white" fill-opacity="0.6" stroke="#7C8DB0" stroke-opacity="0.2"/>
<path d="M953 433C953 433 953 430.5 977.408 303C983.289 272.278 1030.58 273 1062 273C1093.42 273 1140.71 272.278 1146.59 303C1171 430.5 1171 433 1171 433V2085C1171 2085 1171 2085 1156.59 2145.25C1149.31 2175.71 1062 2175.5 1062 2175.5C1062 2175.5 974.691 2175.71 967.408 2145.25C953 2085 953 2085 953 2085V433Z" fill="white" fill-opacity="0.6" stroke="#7C8DB0" stroke-opacity="0.2"/>
<defs>
<linearGradient id="paint0_linear_2798_18217" x1="0" y1="1127" x2="2124" y2="1127" gradientUnits="userSpaceOnUse">
<stop stop-color="#99BBFF"/>
<stop offset="0.489583" stop-color="#CCCCFF"/>
<stop offset="1" stop-color="#99BBFF"/>
</linearGradient>
</defs>
</svg>
