<svg width="16" height="16" viewBox="0 0 16 16" fill="none" xmlns="http://www.w3.org/2000/svg">
<g clip-path="url(#clip0_2642_10044)">
<path d="M15.1176 8.1364C15.1176 7.53896 15.0692 7.10299 14.9642 6.65088H8.14209V9.34741H12.1465C12.0658 10.0175 11.6299 11.0267 10.661 11.7049L10.6474 11.7952L12.8045 13.4662L12.9539 13.4811C14.3264 12.2135 15.1176 10.3485 15.1176 8.1364Z" fill="#4285F4"/>
<path d="M8.14203 15.2411C10.1039 15.2411 11.7509 14.5952 12.9539 13.4811L10.661 11.7048C10.0474 12.1327 9.22386 12.4315 8.14203 12.4315C6.22054 12.4315 4.58969 11.1639 4.00834 9.41199L3.92313 9.41922L1.68021 11.155L1.65088 11.2366C2.84575 13.6102 5.30012 15.2411 8.14203 15.2411Z" fill="#34A853"/>
<path d="M4.00848 9.41204C3.85509 8.95993 3.76631 8.47548 3.76631 7.97494C3.76631 7.47435 3.85509 6.98996 4.00041 6.53785L3.99635 6.44156L1.72532 4.67786L1.65102 4.7132C1.15855 5.69818 0.875977 6.80428 0.875977 7.97494C0.875977 9.14561 1.15855 10.2516 1.65102 11.2366L4.00848 9.41204Z" fill="#FBBC05"/>
<path d="M8.14203 3.51832C9.50644 3.51832 10.4268 4.10768 10.9516 4.6002L13.0023 2.59795C11.7428 1.42729 10.1039 0.70874 8.14203 0.70874C5.30012 0.70874 2.84575 2.33958 1.65088 4.71319L4.00027 6.53784C4.58969 4.78588 6.22054 3.51832 8.14203 3.51832Z" fill="#EB4335"/>
</g>
<defs>
<clipPath id="clip0_2642_10044">
<rect width="14.25" height="14.5825" fill="white" transform="translate(0.875 0.70874)"/>
</clipPath>
</defs>
</svg>
