<svg width="2426" height="2965" viewBox="0 0 2426 2965" fill="none" xmlns="http://www.w3.org/2000/svg">
<path d="M1473.77 1180.5H1569.65C1579.36 1180.5 1587.58 1187.64 1588.82 1197.25C1591.77 1220.12 1596.5 1260.18 1596.5 1282.5C1596.5 1314.98 1596.5 1367.63 1568.53 1444.83C1560.89 1465.9 1549.16 1489.63 1539.32 1508.1C1534.41 1517.33 1529.97 1525.24 1526.76 1530.84C1525.15 1533.65 1523.86 1535.87 1522.96 1537.4C1522.57 1538.06 1522.26 1538.59 1522.03 1538.97C1521.82 1538.58 1521.54 1538.05 1521.2 1537.39C1520.39 1535.84 1519.23 1533.59 1517.77 1530.75C1514.87 1525.08 1510.82 1517.09 1506.24 1507.81C1497.09 1489.24 1485.85 1465.5 1477.46 1444.81C1447.5 1370.9 1447.5 1328.47 1447.5 1282.5C1447.5 1251.97 1451.91 1216.79 1454.87 1196.62C1456.25 1187.27 1464.31 1180.5 1473.77 1180.5Z" fill="#EAEBFF" stroke="#BFC8D9"/>
<path d="M952.229 1180.5H856.346C846.641 1180.5 838.425 1187.64 837.182 1197.25C834.227 1220.12 829.5 1260.18 829.5 1282.5C829.5 1314.98 829.498 1367.63 857.47 1444.83C865.106 1465.9 876.843 1489.63 886.678 1508.1C891.594 1517.33 896.032 1525.24 899.241 1530.84C900.846 1533.65 902.143 1535.87 903.039 1537.4C903.428 1538.06 903.743 1538.59 903.973 1538.97C904.178 1538.58 904.456 1538.05 904.802 1537.39C905.606 1535.84 906.772 1533.59 908.226 1530.75C911.132 1525.08 915.182 1517.09 919.757 1507.81C928.907 1489.24 940.151 1465.5 948.537 1444.81C978.502 1370.9 978.5 1328.47 978.5 1282.5C978.5 1251.97 974.088 1216.79 971.126 1196.62C969.754 1187.27 961.689 1180.5 952.229 1180.5Z" fill="#EAEBFF" stroke="#BFC8D9"/>
<path d="M1213 185.5C1217.02 185.5 1221.08 187.427 1225.16 191.063C1229.24 194.699 1233.3 200.01 1237.31 206.688C1245.34 220.04 1253.12 238.767 1260.46 260.225C1275.14 303.134 1288.01 356.86 1297.51 400.107C1311.81 465.194 1329.31 558.914 1336.41 597.488C1338.56 609.188 1339.62 621.029 1339.62 632.926V1250.01C1339.62 1252.38 1340.42 1254.69 1341.9 1256.54L1365.65 1286.4C1371.7 1294.01 1378.82 1300.69 1386.79 1306.25L1446.34 1347.8L1446.36 1347.82L1446.39 1347.83L2228.95 1774.43C2246.58 1785.66 2279.5 1824.11 2273.86 1889.68C2273.61 1892.59 2270.88 1894.48 2268.15 1893.57C2208.1 1873.65 1778.96 1741.53 1550.47 1671.38C1540.91 1668.44 1531.13 1667 1521.13 1667H1342.5V2171.5C1342.5 2262.57 1313.12 2398.45 1308.21 2420.56C1307.74 2422.66 1307.24 2424.68 1306.69 2426.77L1290.72 2487.37L1290.62 2487.72L1290.92 2487.92L1660.4 2733.86C1661.74 2735.88 1663.47 2740.61 1664.18 2748.26C1664.88 2755.88 1664.57 2766.37 1661.87 2779.88L1244.16 2666.02L1243.67 2665.88L1243.54 2666.37L1240.02 2679.75L1240.02 2679.75C1240.02 2679.75 1240.02 2679.75 1240.02 2679.75C1240.01 2679.75 1240.01 2679.76 1240.01 2679.77C1240.01 2679.79 1240 2679.81 1239.99 2679.84C1239.97 2679.91 1239.94 2680.01 1239.91 2680.14C1239.83 2680.4 1239.72 2680.79 1239.57 2681.28C1239.27 2682.26 1238.82 2683.67 1238.22 2685.35C1237.04 2688.73 1235.27 2693.22 1232.95 2697.71C1230.64 2702.2 1227.78 2706.67 1224.42 2710C1221.07 2713.34 1217.25 2715.5 1213 2715.5C1208.75 2715.5 1204.93 2713.34 1201.58 2710C1198.22 2706.67 1195.36 2702.2 1193.05 2697.71C1190.73 2693.22 1188.96 2688.73 1187.78 2685.35C1187.18 2683.67 1186.73 2682.26 1186.43 2681.28C1186.28 2680.79 1186.17 2680.4 1186.09 2680.14C1186.06 2680.01 1186.03 2679.91 1186.01 2679.84C1186 2679.81 1185.99 2679.79 1185.99 2679.77C1185.99 2679.76 1185.99 2679.75 1185.98 2679.75C1185.98 2679.75 1185.98 2679.75 1185.98 2679.75L1182.46 2666.37L1182.33 2665.89L1181.84 2666.02L762.646 2779.88C759.952 2766.37 759.639 2755.88 760.346 2748.26C761.054 2740.61 762.783 2735.88 764.124 2733.86L1135.08 2487.92L1135.38 2487.72L1135.28 2487.37L1119.31 2426.77C1118.76 2424.68 1118.26 2422.66 1117.79 2420.56C1112.88 2398.45 1083.5 2262.57 1083.5 2171.5V1667H904.87C894.874 1667 885.088 1668.44 875.53 1671.38C647.042 1741.53 217.903 1873.65 157.849 1893.57C155.116 1894.48 152.392 1892.59 152.142 1889.68C146.5 1824.11 179.421 1785.66 197.051 1774.43L979.613 1347.83L979.638 1347.82L979.66 1347.8L1039.21 1306.25C1047.18 1300.69 1054.3 1294.01 1060.35 1286.4L1084.1 1256.54C1085.58 1254.69 1086.38 1252.38 1086.38 1250.01V632.025C1086.38 620.724 1087.34 609.456 1089.3 598.329C1096.03 560.253 1113.17 465.485 1128.49 400.114C1138.74 356.361 1151.61 302.634 1166.1 259.848C1173.35 238.452 1180.99 219.819 1188.9 206.545C1192.85 199.907 1196.86 194.632 1200.9 191.022C1204.94 187.412 1208.98 185.5 1213 185.5Z" fill="url(#paint0_linear_879_1352)" stroke="#BCBAF7"/>
<path opacity="0.4" d="M1138.39 439.743L1150.67 412.724C1153.92 405.584 1161.04 401 1168.88 401H1205.5C1207.71 401 1209.5 402.791 1209.5 405V435.513C1209.5 437.722 1207.71 439.507 1205.5 439.564C1193.17 439.883 1185.74 441.646 1172.75 443C1165.57 443.748 1161.68 444.224 1154.38 445C1150.56 445.405 1145.58 445.378 1141.77 445.264C1138.98 445.181 1137.23 442.286 1138.39 439.743Z" fill="white" fill-opacity="0.6" stroke="#7C8DB0" stroke-opacity="0.2"/>
<path opacity="0.4" d="M1288.11 439.743L1275.83 412.724C1272.58 405.584 1265.46 401 1257.62 401H1221C1218.79 401 1217 402.791 1217 405V435.513C1217 437.722 1218.79 439.507 1221 439.564C1233.33 439.883 1240.76 441.646 1253.75 443C1260.93 443.748 1264.82 444.224 1272.12 445C1275.94 445.405 1280.92 445.378 1284.73 445.264C1287.52 445.181 1289.27 442.286 1288.11 439.743Z" fill="white" fill-opacity="0.6" stroke="#7C8DB0" stroke-opacity="0.2"/>
<path d="M1104 618C1104 618 1104 615.5 1128.41 488C1134.29 457.278 1181.58 458 1213 458C1244.42 458 1291.71 457.278 1297.59 488C1322 615.5 1322 618 1322 618V2270C1322 2270 1322 2270 1307.59 2330.25C1300.31 2360.71 1213 2360.5 1213 2360.5C1213 2360.5 1125.69 2360.71 1118.41 2330.25C1104 2270 1104 2270 1104 2270V618Z" fill="white" fill-opacity="0.6" stroke="#7C8DB0" stroke-opacity="0.2"/>
<rect x="1113" y="614" width="200" height="312" rx="8" fill="white"/>
<rect width="200" height="48" transform="translate(1113 626)" fill="white"/>
<rect x="1121" y="630" width="30" height="40" rx="4" fill="url(#paint1_linear_879_1352)"/>
<rect x="1159.5" y="630" width="30" height="40" rx="4" fill="#E9E8FC"/>
<path d="M1210.54 655V654.02H1212.79V646.516L1211.01 647.636L1210.52 646.782L1213.11 645.13H1213.94V654.02H1216.05V655H1210.54Z" fill="#7C8DB0"/>
<rect x="1236.5" y="630" width="30" height="40" rx="4" fill="#E9E8FC"/>
<rect x="1275" y="630" width="30" height="40" rx="4" fill="url(#paint2_linear_879_1352)"/>
<rect width="200" height="48" transform="translate(1113 686)" fill="white"/>
<rect x="1121" y="690" width="30" height="40" rx="4" fill="url(#paint3_linear_879_1352)"/>
<rect x="1159.5" y="690" width="30" height="40" rx="4" fill="url(#paint4_linear_879_1352)"/>
<path d="M1210.06 715V714.132L1213.44 710.492C1213.91 709.969 1214.25 709.493 1214.46 709.064C1214.67 708.635 1214.78 708.196 1214.78 707.748C1214.78 706.6 1214.11 706.026 1212.78 706.026C1211.78 706.026 1210.9 706.399 1210.13 707.146L1209.7 706.25C1210.06 705.877 1210.52 705.578 1211.08 705.354C1211.65 705.121 1212.25 705.004 1212.88 705.004C1213.87 705.004 1214.62 705.237 1215.14 705.704C1215.68 706.161 1215.94 706.815 1215.94 707.664C1215.94 708.252 1215.8 708.831 1215.51 709.4C1215.22 709.96 1214.78 710.557 1214.18 711.192L1211.53 714.02H1216.35V715H1210.06Z" fill="#7C8DB0"/>
<rect x="1236.5" y="690" width="30" height="40" rx="4" fill="#E9E8FC"/>
<rect x="1275" y="690" width="30" height="40" rx="4" fill="#E9E8FC"/>
<rect width="200" height="48" transform="translate(1113 746)" fill="white"/>
<rect x="1121" y="750" width="30" height="40" rx="4" fill="#E9E8FC"/>
<rect x="1159.5" y="750" width="30" height="40" rx="4" fill="url(#paint5_linear_879_1352)"/>
<path d="M1212.89 775.126C1212.24 775.126 1211.62 775.028 1211.03 774.832C1210.44 774.627 1209.95 774.333 1209.54 773.95L1209.96 773.04C1210.42 773.413 1210.88 773.684 1211.35 773.852C1211.82 774.02 1212.32 774.104 1212.86 774.104C1213.57 774.104 1214.11 773.95 1214.49 773.642C1214.87 773.325 1215.06 772.863 1215.06 772.256C1215.06 771.677 1214.87 771.239 1214.49 770.94C1214.1 770.641 1213.55 770.492 1212.82 770.492H1211.36V769.498H1212.72C1213.36 769.498 1213.86 769.335 1214.22 769.008C1214.59 768.672 1214.78 768.215 1214.78 767.636C1214.78 767.123 1214.61 766.726 1214.26 766.446C1213.93 766.166 1213.45 766.026 1212.82 766.026C1211.79 766.026 1210.9 766.399 1210.13 767.146L1209.71 766.25C1210.08 765.858 1210.54 765.555 1211.1 765.34C1211.67 765.116 1212.27 765.004 1212.89 765.004C1213.84 765.004 1214.58 765.228 1215.12 765.676C1215.66 766.124 1215.93 766.745 1215.93 767.538C1215.93 768.089 1215.79 768.574 1215.51 768.994C1215.23 769.405 1214.84 769.703 1214.35 769.89C1214.93 770.049 1215.39 770.343 1215.72 770.772C1216.05 771.192 1216.21 771.715 1216.21 772.34C1216.21 773.189 1215.91 773.866 1215.31 774.37C1214.72 774.874 1213.92 775.126 1212.89 775.126Z" fill="#7C8DB0"/>
<rect x="1236.5" y="750" width="30" height="40" rx="4" fill="url(#paint6_linear_879_1352)"/>
<rect x="1275" y="750" width="30" height="40" rx="4" fill="url(#paint7_linear_879_1352)"/>
<rect width="200" height="48" transform="translate(1113 806)" fill="white"/>
<rect x="1121" y="810" width="30" height="40" rx="4" fill="url(#paint8_linear_879_1352)"/>
<rect x="1159.5" y="810" width="30" height="40" rx="4" fill="url(#paint9_linear_879_1352)"/>
<path d="M1214.08 835V832.886H1209.53V832.018L1214.28 825.13H1215.24V831.906H1216.71V832.886H1215.24V835H1214.08ZM1214.08 831.906V827.02L1210.72 831.906H1214.08Z" fill="#7C8DB0"/>
<rect x="1236.5" y="810" width="30" height="40" rx="4" fill="url(#paint10_linear_879_1352)"/>
<rect x="1275" y="810" width="30" height="40" rx="4" fill="url(#paint11_linear_879_1352)"/>
<rect width="200" height="48" transform="translate(1113 866)" fill="white"/>
<rect x="1121" y="870" width="30" height="40" rx="4" fill="url(#paint12_linear_879_1352)"/>
<rect x="1159.5" y="870" width="30" height="40" rx="4" fill="url(#paint13_linear_879_1352)"/>
<path d="M1213.21 895.126C1212.58 895.126 1211.97 895.023 1211.39 894.818C1210.81 894.613 1210.32 894.323 1209.92 893.95L1210.36 893.04C1211.22 893.749 1212.17 894.104 1213.2 894.104C1213.88 894.104 1214.42 893.913 1214.81 893.53C1215.2 893.147 1215.4 892.643 1215.4 892.018C1215.4 891.374 1215.21 890.847 1214.84 890.436C1214.46 890.025 1213.95 889.82 1213.3 889.82C1212.35 889.82 1211.61 890.212 1211.07 890.996H1210.23V885.13H1215.96V886.11H1211.36V889.638C1211.91 889.097 1212.62 888.826 1213.51 888.826C1214.12 888.826 1214.66 888.957 1215.12 889.218C1215.57 889.479 1215.92 889.848 1216.17 890.324C1216.42 890.791 1216.54 891.337 1216.54 891.962C1216.54 892.578 1216.41 893.124 1216.14 893.6C1215.87 894.076 1215.48 894.449 1214.98 894.72C1214.48 894.991 1213.89 895.126 1213.21 895.126Z" fill="#7C8DB0"/>
<rect x="1236.5" y="870" width="30" height="40" rx="4" fill="url(#paint14_linear_879_1352)"/>
<rect x="1275" y="870" width="30" height="40" rx="4" fill="url(#paint15_linear_879_1352)"/>
<rect x="1113" y="942" width="200" height="1332" rx="8" fill="white"/>
<rect width="200" height="18" transform="translate(1113 950)" fill="white"/>
<path d="M1139.41 963V954.54H1144.88V955.548H1140.61V958.2H1144.63V959.208H1140.61V961.992H1144.88V963H1139.41ZM1145.56 963L1148 959.976L1145.72 957.144H1147.13L1148.71 959.148L1150.28 957.144H1151.69L1149.4 959.988L1151.85 963H1150.41L1148.69 960.84L1146.99 963H1145.56ZM1152.64 955.788V954.528H1154.06V955.788H1152.64ZM1152.75 963V957.144H1153.96V963H1152.75ZM1158.17 963.108C1157.43 963.108 1156.88 962.92 1156.52 962.544C1156.16 962.168 1155.98 961.624 1155.98 960.912V958.08H1154.84V957.144H1155.98V955.38H1157.19V957.144H1159.01V958.08H1157.19V960.816C1157.19 961.24 1157.28 961.56 1157.46 961.776C1157.64 961.992 1157.94 962.1 1158.35 962.1C1158.47 962.1 1158.6 962.088 1158.72 962.064C1158.84 962.032 1158.96 961.996 1159.08 961.956L1159.27 962.868C1159.15 962.94 1158.98 962.996 1158.77 963.036C1158.56 963.084 1158.36 963.108 1158.17 963.108ZM1163.21 963V957.144H1164.38V958.188C1164.69 957.492 1165.32 957.104 1166.28 957.024L1166.67 957L1166.76 958.032L1166.03 958.104C1164.96 958.208 1164.43 958.756 1164.43 959.748V963H1163.21ZM1170.14 963.108C1169.55 963.108 1169.04 962.984 1168.61 962.736C1168.18 962.488 1167.84 962.14 1167.6 961.692C1167.37 961.236 1167.25 960.696 1167.25 960.072C1167.25 959.448 1167.37 958.912 1167.6 958.464C1167.84 958.008 1168.18 957.656 1168.61 957.408C1169.04 957.16 1169.55 957.036 1170.14 957.036C1170.72 957.036 1171.22 957.16 1171.66 957.408C1172.09 957.656 1172.42 958.008 1172.66 958.464C1172.9 958.912 1173.02 959.448 1173.02 960.072C1173.02 960.696 1172.9 961.236 1172.66 961.692C1172.42 962.14 1172.09 962.488 1171.66 962.736C1171.22 962.984 1170.72 963.108 1170.14 963.108ZM1170.14 962.172C1170.64 962.172 1171.04 961.992 1171.34 961.632C1171.65 961.272 1171.8 960.752 1171.8 960.072C1171.8 959.392 1171.65 958.876 1171.34 958.524C1171.04 958.164 1170.64 957.984 1170.14 957.984C1169.64 957.984 1169.24 958.164 1168.93 958.524C1168.63 958.876 1168.48 959.392 1168.48 960.072C1168.48 960.752 1168.63 961.272 1168.93 961.632C1169.24 961.992 1169.64 962.172 1170.14 962.172ZM1175.86 963L1173.63 957.144H1174.88L1176.45 961.584L1178.07 957.144H1179.01L1180.6 961.608L1182.2 957.144H1183.39L1181.16 963H1180.05L1178.5 958.812L1176.97 963H1175.86Z" fill="#7C8DB0"/>
<circle cx="1126" cy="959" r="6" stroke="#7C8DB0" stroke-width="1.5"/>
<path fill-rule="evenodd" clip-rule="evenodd" d="M1126 957.667C1126.46 957.667 1126.83 957.294 1126.83 956.833C1126.83 956.373 1126.46 956 1126 956C1125.54 956 1125.17 956.373 1125.17 956.833C1125.17 957.294 1125.54 957.667 1126 957.667ZM1126.75 959C1126.75 958.586 1126.41 958.25 1126 958.25C1125.59 958.25 1125.25 958.586 1125.25 959V961.333C1125.25 961.748 1125.59 962.083 1126 962.083C1126.41 962.083 1126.75 961.748 1126.75 961.333V959Z" fill="#7C8DB0"/>
<rect width="200" height="40" transform="translate(1113 972)" fill="white"/>
<rect x="1117" y="976" width="22" height="32" rx="4" fill="url(#paint16_linear_879_1352)"/>
<rect x="1144" y="976" width="22" height="32" rx="4" fill="url(#paint17_linear_879_1352)"/>
<rect x="1171" y="976" width="22" height="32" rx="4" fill="url(#paint18_linear_879_1352)"/>
<path d="M1213.34 997.126C1212.17 997.126 1211.27 996.706 1210.64 995.866C1210.01 995.017 1209.7 993.831 1209.7 992.31C1209.7 990.602 1210.05 989.291 1210.75 988.376C1211.45 987.461 1212.43 987.004 1213.69 987.004C1214.19 987.004 1214.7 987.111 1215.2 987.326C1215.71 987.541 1216.13 987.83 1216.46 988.194L1216.04 989.09C1215.7 988.735 1215.32 988.469 1214.91 988.292C1214.51 988.115 1214.09 988.026 1213.66 988.026C1212.75 988.026 1212.04 988.367 1211.55 989.048C1211.06 989.729 1210.82 990.742 1210.82 992.086V992.772C1211 992.156 1211.32 991.675 1211.8 991.33C1212.28 990.985 1212.85 990.812 1213.51 990.812C1214.09 990.812 1214.6 990.947 1215.05 991.218C1215.49 991.479 1215.84 991.843 1216.1 992.31C1216.35 992.777 1216.47 993.313 1216.47 993.92C1216.47 994.545 1216.34 995.101 1216.07 995.586C1215.81 996.062 1215.44 996.44 1214.96 996.72C1214.5 996.991 1213.95 997.126 1213.34 997.126ZM1213.27 996.146C1213.89 996.146 1214.4 995.945 1214.78 995.544C1215.17 995.143 1215.37 994.615 1215.37 993.962C1215.37 993.318 1215.17 992.795 1214.78 992.394C1214.4 991.983 1213.89 991.778 1213.27 991.778C1212.64 991.778 1212.13 991.983 1211.74 992.394C1211.36 992.795 1211.17 993.318 1211.17 993.962C1211.17 994.615 1211.36 995.143 1211.74 995.544C1212.13 995.945 1212.64 996.146 1213.27 996.146Z" fill="#7C8DB0"/>
<rect x="1233" y="976" width="22" height="32" rx="4" fill="#E9E8FC"/>
<rect x="1260" y="976" width="22" height="32" rx="4" fill="url(#paint19_linear_879_1352)"/>
<rect x="1287" y="976" width="22" height="32" rx="4" fill="#E9E8FC"/>
<rect width="200" height="40" transform="translate(1113 1016)" fill="white"/>
<rect x="1117" y="1020" width="22" height="32" rx="4" fill="url(#paint20_linear_879_1352)"/>
<rect x="1144" y="1020" width="22" height="32" rx="4" fill="url(#paint21_linear_879_1352)"/>
<rect x="1171" y="1020" width="22" height="32" rx="4" fill="#E9E8FC"/>
<path d="M1210.37 1041L1214.96 1032.12H1209.74V1031.13H1216.26V1032L1211.64 1041H1210.37Z" fill="#7C8DB0"/>
<rect x="1233" y="1020" width="22" height="32" rx="4" fill="url(#paint22_linear_879_1352)"/>
<rect x="1260" y="1020" width="22" height="32" rx="4" fill="url(#paint23_linear_879_1352)"/>
<rect x="1287" y="1020" width="22" height="32" rx="4" fill="#E9E8FC"/>
<rect width="200" height="40" transform="translate(1113 1060)" fill="white"/>
<rect x="1117" y="1064" width="22" height="32" rx="4" fill="url(#paint24_linear_879_1352)"/>
<rect x="1144" y="1064" width="22" height="32" rx="4" fill="#E9E8FC"/>
<rect x="1171" y="1064" width="22" height="32" rx="4" fill="#E9E8FC"/>
<path d="M1213 1085.13C1211.89 1085.13 1211.03 1084.89 1210.41 1084.41C1209.8 1083.93 1209.49 1083.25 1209.49 1082.38C1209.49 1081.78 1209.65 1081.26 1209.98 1080.83C1210.31 1080.4 1210.76 1080.1 1211.31 1079.95C1210.81 1079.76 1210.43 1079.46 1210.15 1079.05C1209.87 1078.64 1209.73 1078.17 1209.73 1077.64C1209.73 1076.81 1210.02 1076.16 1210.61 1075.7C1211.21 1075.24 1212 1075 1213 1075C1214 1075 1214.8 1075.24 1215.4 1075.7C1215.99 1076.16 1216.29 1076.81 1216.29 1077.64C1216.29 1078.17 1216.15 1078.64 1215.86 1079.06C1215.58 1079.47 1215.2 1079.77 1214.71 1079.95C1215.26 1080.1 1215.7 1080.4 1216.03 1080.83C1216.35 1081.26 1216.52 1081.78 1216.52 1082.38C1216.52 1083.25 1216.21 1083.93 1215.59 1084.41C1214.98 1084.89 1214.11 1085.13 1213 1085.13ZM1213 1079.53C1213.68 1079.53 1214.22 1079.37 1214.6 1079.05C1214.99 1078.72 1215.19 1078.28 1215.19 1077.73C1215.19 1077.17 1214.99 1076.74 1214.6 1076.43C1214.22 1076.11 1213.68 1075.96 1213 1075.96C1212.32 1075.96 1211.79 1076.11 1211.41 1076.43C1211.02 1076.74 1210.83 1077.17 1210.83 1077.73C1210.83 1078.28 1211.02 1078.72 1211.41 1079.05C1211.79 1079.37 1212.32 1079.53 1213 1079.53ZM1213 1084.17C1214.61 1084.17 1215.41 1083.55 1215.41 1082.31C1215.41 1081.09 1214.61 1080.48 1213 1080.48C1211.4 1080.48 1210.59 1081.09 1210.59 1082.31C1210.59 1083.55 1211.4 1084.17 1213 1084.17Z" fill="#7C8DB0"/>
<rect x="1233" y="1064" width="22" height="32" rx="4" fill="#E9E8FC"/>
<rect x="1260" y="1064" width="22" height="32" rx="4" fill="url(#paint25_linear_879_1352)"/>
<rect x="1287" y="1064" width="22" height="32" rx="4" fill="#E9E8FC"/>
<rect width="200" height="40" transform="translate(1113 1104)" fill="white"/>
<rect x="1117" y="1108" width="22" height="32" rx="4" fill="#E9E8FC"/>
<rect x="1144" y="1108" width="22" height="32" rx="4" fill="#E9E8FC"/>
<rect x="1171" y="1108" width="22" height="32" rx="4" fill="url(#paint26_linear_879_1352)"/>
<path d="M1212.33 1129.13C1211.83 1129.13 1211.32 1129.02 1210.8 1128.8C1210.29 1128.59 1209.87 1128.3 1209.54 1127.94L1209.98 1127.03C1210.31 1127.39 1210.68 1127.66 1211.08 1127.84C1211.5 1128.02 1211.92 1128.1 1212.34 1128.1C1213.26 1128.1 1213.96 1127.76 1214.46 1127.08C1214.95 1126.4 1215.2 1125.39 1215.2 1124.04V1123.34C1215.01 1123.96 1214.68 1124.45 1214.19 1124.8C1213.72 1125.15 1213.15 1125.32 1212.5 1125.32C1211.92 1125.32 1211.41 1125.19 1210.96 1124.93C1210.51 1124.66 1210.16 1124.29 1209.91 1123.82C1209.66 1123.35 1209.53 1122.82 1209.53 1122.21C1209.53 1121.58 1209.66 1121.03 1209.92 1120.56C1210.19 1120.07 1210.56 1119.69 1211.03 1119.42C1211.5 1119.14 1212.05 1119 1212.67 1119C1213.83 1119 1214.73 1119.43 1215.35 1120.28C1215.99 1121.12 1216.31 1122.3 1216.31 1123.82C1216.31 1125.52 1215.96 1126.83 1215.26 1127.75C1214.56 1128.67 1213.58 1129.13 1212.33 1129.13ZM1212.74 1124.35C1213.36 1124.35 1213.87 1124.15 1214.26 1123.75C1214.65 1123.34 1214.85 1122.81 1214.85 1122.17C1214.85 1121.51 1214.65 1120.99 1214.26 1120.59C1213.87 1120.18 1213.36 1119.97 1212.74 1119.97C1212.12 1119.97 1211.62 1120.18 1211.22 1120.59C1210.83 1120.99 1210.64 1121.51 1210.64 1122.17C1210.64 1122.81 1210.83 1123.34 1211.22 1123.75C1211.62 1124.15 1212.12 1124.35 1212.74 1124.35Z" fill="#7C8DB0"/>
<rect x="1233" y="1108" width="22" height="32" rx="4" fill="#E9E8FC"/>
<rect x="1260" y="1108" width="22" height="32" rx="4" fill="url(#paint27_linear_879_1352)"/>
<rect x="1287" y="1108" width="22" height="32" rx="4" fill="url(#paint28_linear_879_1352)"/>
<rect width="200" height="40" transform="translate(1113 1148)" fill="white"/>
<rect x="1117" y="1152" width="22" height="32" rx="4" fill="url(#paint29_linear_879_1352)"/>
<rect x="1144" y="1152" width="22" height="32" rx="4" fill="#E9E8FC"/>
<rect x="1171" y="1152" width="22" height="32" rx="4" fill="url(#paint30_linear_879_1352)"/>
<path d="M1206.34 1173V1172.02H1208.6V1164.52L1206.82 1165.64L1206.33 1164.78L1208.92 1163.13H1209.74V1172.02H1211.86V1173H1206.34ZM1217.2 1173.13C1216.07 1173.13 1215.21 1172.69 1214.62 1171.82C1214.04 1170.96 1213.74 1169.7 1213.74 1168.06C1213.74 1166.41 1214.04 1165.15 1214.62 1164.29C1215.21 1163.43 1216.07 1163 1217.2 1163C1218.34 1163 1219.2 1163.43 1219.78 1164.29C1220.36 1165.14 1220.66 1166.39 1220.66 1168.04C1220.66 1169.7 1220.36 1170.96 1219.76 1171.82C1219.17 1172.69 1218.32 1173.13 1217.2 1173.13ZM1217.2 1172.13C1217.98 1172.13 1218.56 1171.8 1218.94 1171.14C1219.32 1170.48 1219.51 1169.44 1219.51 1168.04C1219.51 1166.64 1219.32 1165.62 1218.95 1164.98C1218.58 1164.32 1217.99 1164 1217.2 1164C1216.42 1164 1215.83 1164.32 1215.45 1164.98C1215.08 1165.63 1214.89 1166.65 1214.89 1168.04C1214.89 1169.44 1215.08 1170.48 1215.45 1171.14C1215.83 1171.8 1216.42 1172.13 1217.2 1172.13Z" fill="#7C8DB0"/>
<rect x="1233" y="1152" width="22" height="32" rx="4" fill="url(#paint31_linear_879_1352)"/>
<rect x="1260" y="1152" width="22" height="32" rx="4" fill="url(#paint32_linear_879_1352)"/>
<rect x="1287" y="1152" width="22" height="32" rx="4" fill="#E9E8FC"/>
<rect width="200" height="40" transform="translate(1113 1192)" fill="white"/>
<rect x="1117" y="1196" width="22" height="32" rx="4" fill="#E9E8FC"/>
<rect x="1144" y="1196" width="22" height="32" rx="4" fill="url(#paint33_linear_879_1352)"/>
<rect x="1171" y="1196" width="22" height="32" rx="4" fill="url(#paint34_linear_879_1352)"/>
<path d="M1206.34 1217V1216.02H1208.6V1208.52L1206.82 1209.64L1206.33 1208.78L1208.92 1207.13H1209.74V1216.02H1211.86V1217H1206.34ZM1214.74 1217V1216.02H1216.99V1208.52L1215.21 1209.64L1214.72 1208.78L1217.31 1207.13H1218.14V1216.02H1220.25V1217H1214.74Z" fill="#7C8DB0"/>
<rect x="1233" y="1196" width="22" height="32" rx="4" fill="url(#paint35_linear_879_1352)"/>
<rect x="1260" y="1196" width="22" height="32" rx="4" fill="url(#paint36_linear_879_1352)"/>
<rect x="1287" y="1196" width="22" height="32" rx="4" fill="#E9E8FC"/>
<rect width="200" height="40" transform="translate(1113 1236)" fill="white"/>
<rect x="1117" y="1240" width="22" height="32" rx="4" fill="url(#paint37_linear_879_1352)"/>
<rect x="1144" y="1240" width="22" height="32" rx="4" fill="url(#paint38_linear_879_1352)"/>
<rect x="1171" y="1240" width="22" height="32" rx="4" fill="#E9E8FC"/>
<path d="M1206.34 1261V1260.02H1208.6V1252.52L1206.82 1253.64L1206.33 1252.78L1208.92 1251.13H1209.74V1260.02H1211.86V1261H1206.34ZM1214.26 1261V1260.13L1217.63 1256.49C1218.11 1255.97 1218.45 1255.49 1218.66 1255.06C1218.87 1254.63 1218.98 1254.2 1218.98 1253.75C1218.98 1252.6 1218.31 1252.03 1216.98 1252.03C1215.98 1252.03 1215.1 1252.4 1214.33 1253.15L1213.9 1252.25C1214.26 1251.88 1214.72 1251.58 1215.28 1251.35C1215.85 1251.12 1216.45 1251 1217.07 1251C1218.06 1251 1218.82 1251.24 1219.34 1251.7C1219.87 1252.16 1220.14 1252.81 1220.14 1253.66C1220.14 1254.25 1220 1254.83 1219.71 1255.4C1219.42 1255.96 1218.97 1256.56 1218.38 1257.19L1215.73 1260.02H1220.55V1261H1214.26Z" fill="#7C8DB0"/>
<rect x="1233" y="1240" width="22" height="32" rx="4" fill="url(#paint39_linear_879_1352)"/>
<rect x="1260" y="1240" width="22" height="32" rx="4" fill="url(#paint40_linear_879_1352)"/>
<rect x="1287" y="1240" width="22" height="32" rx="4" fill="url(#paint41_linear_879_1352)"/>
<rect width="200" height="40" transform="translate(1113 1280)" fill="white"/>
<rect x="1117" y="1284" width="22" height="32" rx="4" fill="#E9E8FC"/>
<rect x="1144" y="1284" width="22" height="32" rx="4" fill="url(#paint42_linear_879_1352)"/>
<rect x="1171" y="1284" width="22" height="32" rx="4" fill="url(#paint43_linear_879_1352)"/>
<path d="M1206.34 1305V1304.02H1208.6V1296.52L1206.82 1297.64L1206.33 1296.78L1208.92 1295.13H1209.74V1304.02H1211.86V1305H1206.34ZM1217.09 1305.13C1216.43 1305.13 1215.81 1305.03 1215.23 1304.83C1214.64 1304.63 1214.14 1304.33 1213.74 1303.95L1214.16 1303.04C1214.62 1303.41 1215.08 1303.68 1215.55 1303.85C1216.01 1304.02 1216.52 1304.1 1217.06 1304.1C1217.77 1304.1 1218.31 1303.95 1218.68 1303.64C1219.07 1303.32 1219.26 1302.86 1219.26 1302.26C1219.26 1301.68 1219.07 1301.24 1218.68 1300.94C1218.3 1300.64 1217.75 1300.49 1217.02 1300.49H1215.56V1299.5H1216.92C1217.55 1299.5 1218.05 1299.33 1218.42 1299.01C1218.79 1298.67 1218.98 1298.21 1218.98 1297.64C1218.98 1297.12 1218.81 1296.73 1218.46 1296.45C1218.12 1296.17 1217.64 1296.03 1217.02 1296.03C1215.99 1296.03 1215.1 1296.4 1214.33 1297.15L1213.91 1296.25C1214.27 1295.86 1214.74 1295.55 1215.3 1295.34C1215.87 1295.12 1216.46 1295 1217.09 1295C1218.04 1295 1218.78 1295.23 1219.31 1295.68C1219.86 1296.12 1220.13 1296.74 1220.13 1297.54C1220.13 1298.09 1219.99 1298.57 1219.71 1298.99C1219.43 1299.4 1219.04 1299.7 1218.54 1299.89C1219.13 1300.05 1219.59 1300.34 1219.92 1300.77C1220.24 1301.19 1220.41 1301.71 1220.41 1302.34C1220.41 1303.19 1220.11 1303.87 1219.51 1304.37C1218.92 1304.87 1218.11 1305.13 1217.09 1305.13Z" fill="#7C8DB0"/>
<rect x="1233" y="1284" width="22" height="32" rx="4" fill="#E9E8FC"/>
<rect x="1260" y="1284" width="22" height="32" rx="4" fill="url(#paint44_linear_879_1352)"/>
<rect x="1287" y="1284" width="22" height="32" rx="4" fill="#E9E8FC"/>
<rect width="200" height="18" transform="translate(1113 1324)" fill="white"/>
<path d="M1139.41 1337V1328.54H1144.88V1329.55H1140.61V1332.2H1144.63V1333.21H1140.61V1335.99H1144.88V1337H1139.41ZM1145.56 1337L1148 1333.98L1145.72 1331.14H1147.13L1148.71 1333.15L1150.28 1331.14H1151.69L1149.4 1333.99L1151.85 1337H1150.41L1148.69 1334.84L1146.99 1337H1145.56ZM1152.64 1329.79V1328.53H1154.06V1329.79H1152.64ZM1152.75 1337V1331.14H1153.96V1337H1152.75ZM1158.17 1337.11C1157.43 1337.11 1156.88 1336.92 1156.52 1336.54C1156.16 1336.17 1155.98 1335.62 1155.98 1334.91V1332.08H1154.84V1331.14H1155.98V1329.38H1157.19V1331.14H1159.01V1332.08H1157.19V1334.82C1157.19 1335.24 1157.28 1335.56 1157.46 1335.78C1157.64 1335.99 1157.94 1336.1 1158.35 1336.1C1158.47 1336.1 1158.6 1336.09 1158.72 1336.06C1158.84 1336.03 1158.96 1336 1159.08 1335.96L1159.27 1336.87C1159.15 1336.94 1158.98 1337 1158.77 1337.04C1158.56 1337.08 1158.36 1337.11 1158.17 1337.11ZM1163.21 1337V1331.14H1164.38V1332.19C1164.69 1331.49 1165.32 1331.1 1166.28 1331.02L1166.67 1331L1166.76 1332.03L1166.03 1332.1C1164.96 1332.21 1164.43 1332.76 1164.43 1333.75V1337H1163.21ZM1170.14 1337.11C1169.55 1337.11 1169.04 1336.98 1168.61 1336.74C1168.18 1336.49 1167.84 1336.14 1167.6 1335.69C1167.37 1335.24 1167.25 1334.7 1167.25 1334.07C1167.25 1333.45 1167.37 1332.91 1167.6 1332.46C1167.84 1332.01 1168.18 1331.66 1168.61 1331.41C1169.04 1331.16 1169.55 1331.04 1170.14 1331.04C1170.72 1331.04 1171.22 1331.16 1171.66 1331.41C1172.09 1331.66 1172.42 1332.01 1172.66 1332.46C1172.9 1332.91 1173.02 1333.45 1173.02 1334.07C1173.02 1334.7 1172.9 1335.24 1172.66 1335.69C1172.42 1336.14 1172.09 1336.49 1171.66 1336.74C1171.22 1336.98 1170.72 1337.11 1170.14 1337.11ZM1170.14 1336.17C1170.64 1336.17 1171.04 1335.99 1171.34 1335.63C1171.65 1335.27 1171.8 1334.75 1171.8 1334.07C1171.8 1333.39 1171.65 1332.88 1171.34 1332.52C1171.04 1332.16 1170.64 1331.98 1170.14 1331.98C1169.64 1331.98 1169.24 1332.16 1168.93 1332.52C1168.63 1332.88 1168.48 1333.39 1168.48 1334.07C1168.48 1334.75 1168.63 1335.27 1168.93 1335.63C1169.24 1335.99 1169.64 1336.17 1170.14 1336.17ZM1175.86 1337L1173.63 1331.14H1174.88L1176.45 1335.58L1178.07 1331.14H1179.01L1180.6 1335.61L1182.2 1331.14H1183.39L1181.16 1337H1180.05L1178.5 1332.81L1176.97 1337H1175.86Z" fill="#7C8DB0"/>
<circle cx="1126" cy="1333" r="6" stroke="#7C8DB0" stroke-width="1.5"/>
<path fill-rule="evenodd" clip-rule="evenodd" d="M1126 1331.67C1126.46 1331.67 1126.83 1331.29 1126.83 1330.83C1126.83 1330.37 1126.46 1330 1126 1330C1125.54 1330 1125.17 1330.37 1125.17 1330.83C1125.17 1331.29 1125.54 1331.67 1126 1331.67ZM1126.75 1333C1126.75 1332.59 1126.41 1332.25 1126 1332.25C1125.59 1332.25 1125.25 1332.59 1125.25 1333V1335.33C1125.25 1335.75 1125.59 1336.08 1126 1336.08C1126.41 1336.08 1126.75 1335.75 1126.75 1335.33V1333Z" fill="#7C8DB0"/>
<rect width="200" height="40" transform="translate(1113 1346)" fill="white"/>
<rect x="1117" y="1350" width="22" height="32" rx="4" fill="#E9E8FC"/>
<rect x="1144" y="1350" width="22" height="32" rx="4" fill="#E9E8FC"/>
<rect x="1171" y="1350" width="22" height="32" rx="4" fill="url(#paint45_linear_879_1352)"/>
<path d="M1206.34 1371V1370.02H1208.6V1362.52L1206.82 1363.64L1206.33 1362.78L1208.92 1361.13H1209.74V1370.02H1211.86V1371H1206.34ZM1218.28 1371V1368.89H1213.73V1368.02L1218.47 1361.13H1219.44V1367.91H1220.91V1368.89H1219.44V1371H1218.28ZM1218.28 1367.91V1363.02L1214.92 1367.91H1218.28Z" fill="#7C8DB0"/>
<rect x="1233" y="1350" width="22" height="32" rx="4" fill="#E9E8FC"/>
<rect x="1260" y="1350" width="22" height="32" rx="4" fill="url(#paint46_linear_879_1352)"/>
<rect x="1287" y="1350" width="22" height="32" rx="4" fill="#E9E8FC"/>
<rect width="200" height="40" transform="translate(1113 1390)" fill="white"/>
<rect x="1117" y="1394" width="22" height="32" rx="4" fill="url(#paint47_linear_879_1352)"/>
<rect x="1144" y="1394" width="22" height="32" rx="4" fill="#E9E8FC"/>
<rect x="1171" y="1394" width="22" height="32" rx="4" fill="url(#paint48_linear_879_1352)"/>
<path d="M1206.34 1415V1414.02H1208.6V1406.52L1206.82 1407.64L1206.33 1406.78L1208.92 1405.13H1209.74V1414.02H1211.86V1415H1206.34ZM1217.41 1415.13C1216.78 1415.13 1216.17 1415.02 1215.59 1414.82C1215.01 1414.61 1214.52 1414.32 1214.12 1413.95L1214.55 1413.04C1215.42 1413.75 1216.37 1414.1 1217.4 1414.1C1218.08 1414.1 1218.61 1413.91 1219.01 1413.53C1219.4 1413.15 1219.59 1412.64 1219.59 1412.02C1219.59 1411.37 1219.41 1410.85 1219.03 1410.44C1218.66 1410.03 1218.15 1409.82 1217.49 1409.82C1216.55 1409.82 1215.81 1410.21 1215.27 1411H1214.43V1405.13H1220.15V1406.11H1215.56V1409.64C1216.1 1409.1 1216.82 1408.83 1217.7 1408.83C1218.32 1408.83 1218.86 1408.96 1219.31 1409.22C1219.77 1409.48 1220.12 1409.85 1220.36 1410.32C1220.62 1410.79 1220.74 1411.34 1220.74 1411.96C1220.74 1412.58 1220.61 1413.12 1220.34 1413.6C1220.07 1414.08 1219.68 1414.45 1219.17 1414.72C1218.68 1414.99 1218.09 1415.13 1217.41 1415.13Z" fill="#7C8DB0"/>
<rect x="1233" y="1394" width="22" height="32" rx="4" fill="url(#paint49_linear_879_1352)"/>
<rect x="1260" y="1394" width="22" height="32" rx="4" fill="url(#paint50_linear_879_1352)"/>
<rect x="1287" y="1394" width="22" height="32" rx="4" fill="url(#paint51_linear_879_1352)"/>
<rect width="200" height="40" transform="translate(1113 1434)" fill="white"/>
<rect x="1117" y="1438" width="22" height="32" rx="4" fill="#E9E8FC"/>
<rect x="1144" y="1438" width="22" height="32" rx="4" fill="url(#paint52_linear_879_1352)"/>
<rect x="1171" y="1438" width="22" height="32" rx="4" fill="url(#paint53_linear_879_1352)"/>
<path d="M1206.34 1459V1458.02H1208.6V1450.52L1206.82 1451.64L1206.33 1450.78L1208.92 1449.13H1209.74V1458.02H1211.86V1459H1206.34ZM1217.54 1459.13C1216.37 1459.13 1215.47 1458.71 1214.83 1457.87C1214.21 1457.02 1213.9 1455.83 1213.9 1454.31C1213.9 1452.6 1214.25 1451.29 1214.95 1450.38C1215.65 1449.46 1216.63 1449 1217.89 1449C1218.39 1449 1218.89 1449.11 1219.4 1449.33C1219.91 1449.54 1220.33 1449.83 1220.66 1450.19L1220.24 1451.09C1219.89 1450.74 1219.51 1450.47 1219.1 1450.29C1218.7 1450.11 1218.29 1450.03 1217.86 1450.03C1216.94 1450.03 1216.24 1450.37 1215.74 1451.05C1215.26 1451.73 1215.02 1452.74 1215.02 1454.09V1454.77C1215.19 1454.16 1215.52 1453.68 1216 1453.33C1216.48 1452.98 1217.05 1452.81 1217.7 1452.81C1218.28 1452.81 1218.8 1452.95 1219.24 1453.22C1219.69 1453.48 1220.04 1453.84 1220.29 1454.31C1220.55 1454.78 1220.67 1455.31 1220.67 1455.92C1220.67 1456.55 1220.54 1457.1 1220.27 1457.59C1220 1458.06 1219.64 1458.44 1219.16 1458.72C1218.69 1458.99 1218.15 1459.13 1217.54 1459.13ZM1217.47 1458.15C1218.09 1458.15 1218.6 1457.95 1218.98 1457.54C1219.37 1457.14 1219.57 1456.62 1219.57 1455.96C1219.57 1455.32 1219.37 1454.8 1218.98 1454.39C1218.6 1453.98 1218.09 1453.78 1217.47 1453.78C1216.84 1453.78 1216.33 1453.98 1215.94 1454.39C1215.56 1454.8 1215.37 1455.32 1215.37 1455.96C1215.37 1456.62 1215.56 1457.14 1215.94 1457.54C1216.33 1457.95 1216.84 1458.15 1217.47 1458.15Z" fill="#7C8DB0"/>
<rect x="1233" y="1438" width="22" height="32" rx="4" fill="#E9E8FC"/>
<rect x="1260" y="1438" width="22" height="32" rx="4" fill="url(#paint54_linear_879_1352)"/>
<rect x="1287" y="1438" width="22" height="32" rx="4" fill="#E9E8FC"/>
<rect width="200" height="40" transform="translate(1113 1478)" fill="white"/>
<rect x="1117" y="1482" width="22" height="32" rx="4" fill="url(#paint55_linear_879_1352)"/>
<rect x="1144" y="1482" width="22" height="32" rx="4" fill="url(#paint56_linear_879_1352)"/>
<rect x="1171" y="1482" width="22" height="32" rx="4" fill="#E9E8FC"/>
<path d="M1206.34 1503V1502.02H1208.6V1494.52L1206.82 1495.64L1206.33 1494.78L1208.92 1493.13H1209.74V1502.02H1211.86V1503H1206.34ZM1214.57 1503L1219.16 1494.12H1213.94V1493.13H1220.46V1494L1215.84 1503H1214.57Z" fill="#7C8DB0"/>
<rect x="1233" y="1482" width="22" height="32" rx="4" fill="url(#paint57_linear_879_1352)"/>
<rect x="1260" y="1482" width="22" height="32" rx="4" fill="url(#paint58_linear_879_1352)"/>
<rect x="1287" y="1482" width="22" height="32" rx="4" fill="#E9E8FC"/>
<rect width="200" height="40" transform="translate(1113 1522)" fill="white"/>
<rect x="1117" y="1526" width="22" height="32" rx="4" fill="#E9E8FC"/>
<rect x="1144" y="1526" width="22" height="32" rx="4" fill="url(#paint59_linear_879_1352)"/>
<rect x="1171" y="1526" width="22" height="32" rx="4" fill="#E9E8FC"/>
<path d="M1206.34 1547V1546.02H1208.6V1538.52L1206.82 1539.64L1206.33 1538.78L1208.92 1537.13H1209.74V1546.02H1211.86V1547H1206.34ZM1217.2 1547.13C1216.09 1547.13 1215.23 1546.89 1214.61 1546.41C1213.99 1545.93 1213.69 1545.25 1213.69 1544.38C1213.69 1543.78 1213.85 1543.26 1214.18 1542.83C1214.51 1542.4 1214.96 1542.1 1215.51 1541.95C1215.01 1541.76 1214.62 1541.46 1214.34 1541.05C1214.06 1540.64 1213.92 1540.17 1213.92 1539.64C1213.92 1538.81 1214.22 1538.16 1214.81 1537.7C1215.4 1537.24 1216.2 1537 1217.2 1537C1218.2 1537 1219 1537.24 1219.59 1537.7C1220.19 1538.16 1220.49 1538.81 1220.49 1539.64C1220.49 1540.17 1220.35 1540.64 1220.06 1541.06C1219.78 1541.47 1219.39 1541.77 1218.91 1541.95C1219.46 1542.1 1219.9 1542.4 1220.22 1542.83C1220.55 1543.26 1220.71 1543.78 1220.71 1544.38C1220.71 1545.25 1220.41 1545.93 1219.79 1546.41C1219.17 1546.89 1218.31 1547.13 1217.2 1547.13ZM1217.2 1541.53C1217.88 1541.53 1218.41 1541.37 1218.8 1541.05C1219.19 1540.72 1219.38 1540.28 1219.38 1539.73C1219.38 1539.17 1219.19 1538.74 1218.8 1538.43C1218.41 1538.11 1217.88 1537.96 1217.2 1537.96C1216.52 1537.96 1215.99 1538.11 1215.6 1538.43C1215.22 1538.74 1215.03 1539.17 1215.03 1539.73C1215.03 1540.28 1215.22 1540.72 1215.6 1541.05C1215.99 1541.37 1216.52 1541.53 1217.2 1541.53ZM1217.2 1546.17C1218.81 1546.17 1219.61 1545.55 1219.61 1544.31C1219.61 1543.09 1218.81 1542.48 1217.2 1542.48C1215.59 1542.48 1214.79 1543.09 1214.79 1544.31C1214.79 1545.55 1215.59 1546.17 1217.2 1546.17Z" fill="#7C8DB0"/>
<rect x="1233" y="1526" width="22" height="32" rx="4" fill="url(#paint60_linear_879_1352)"/>
<rect x="1260" y="1526" width="22" height="32" rx="4" fill="url(#paint61_linear_879_1352)"/>
<rect x="1287" y="1526" width="22" height="32" rx="4" fill="url(#paint62_linear_879_1352)"/>
<rect width="200" height="18" transform="translate(1113 1566)" fill="white"/>
<path d="M1139.41 1579V1570.54H1144.88V1571.55H1140.61V1574.2H1144.63V1575.21H1140.61V1577.99H1144.88V1579H1139.41ZM1145.56 1579L1148 1575.98L1145.72 1573.14H1147.13L1148.71 1575.15L1150.28 1573.14H1151.69L1149.4 1575.99L1151.85 1579H1150.41L1148.69 1576.84L1146.99 1579H1145.56ZM1152.64 1571.79V1570.53H1154.06V1571.79H1152.64ZM1152.75 1579V1573.14H1153.96V1579H1152.75ZM1158.17 1579.11C1157.43 1579.11 1156.88 1578.92 1156.52 1578.54C1156.16 1578.17 1155.98 1577.62 1155.98 1576.91V1574.08H1154.84V1573.14H1155.98V1571.38H1157.19V1573.14H1159.01V1574.08H1157.19V1576.82C1157.19 1577.24 1157.28 1577.56 1157.46 1577.78C1157.64 1577.99 1157.94 1578.1 1158.35 1578.1C1158.47 1578.1 1158.6 1578.09 1158.72 1578.06C1158.84 1578.03 1158.96 1578 1159.08 1577.96L1159.27 1578.87C1159.15 1578.94 1158.98 1579 1158.77 1579.04C1158.56 1579.08 1158.36 1579.11 1158.17 1579.11ZM1163.21 1579V1573.14H1164.38V1574.19C1164.69 1573.49 1165.32 1573.1 1166.28 1573.02L1166.67 1573L1166.76 1574.03L1166.03 1574.1C1164.96 1574.21 1164.43 1574.76 1164.43 1575.75V1579H1163.21ZM1170.14 1579.11C1169.55 1579.11 1169.04 1578.98 1168.61 1578.74C1168.18 1578.49 1167.84 1578.14 1167.6 1577.69C1167.37 1577.24 1167.25 1576.7 1167.25 1576.07C1167.25 1575.45 1167.37 1574.91 1167.6 1574.46C1167.84 1574.01 1168.18 1573.66 1168.61 1573.41C1169.04 1573.16 1169.55 1573.04 1170.14 1573.04C1170.72 1573.04 1171.22 1573.16 1171.66 1573.41C1172.09 1573.66 1172.42 1574.01 1172.66 1574.46C1172.9 1574.91 1173.02 1575.45 1173.02 1576.07C1173.02 1576.7 1172.9 1577.24 1172.66 1577.69C1172.42 1578.14 1172.09 1578.49 1171.66 1578.74C1171.22 1578.98 1170.72 1579.11 1170.14 1579.11ZM1170.14 1578.17C1170.64 1578.17 1171.04 1577.99 1171.34 1577.63C1171.65 1577.27 1171.8 1576.75 1171.8 1576.07C1171.8 1575.39 1171.65 1574.88 1171.34 1574.52C1171.04 1574.16 1170.64 1573.98 1170.14 1573.98C1169.64 1573.98 1169.24 1574.16 1168.93 1574.52C1168.63 1574.88 1168.48 1575.39 1168.48 1576.07C1168.48 1576.75 1168.63 1577.27 1168.93 1577.63C1169.24 1577.99 1169.64 1578.17 1170.14 1578.17ZM1175.86 1579L1173.63 1573.14H1174.88L1176.45 1577.58L1178.07 1573.14H1179.01L1180.6 1577.61L1182.2 1573.14H1183.39L1181.16 1579H1180.05L1178.5 1574.81L1176.97 1579H1175.86Z" fill="#7C8DB0"/>
<circle cx="1126" cy="1575" r="6" stroke="#7C8DB0" stroke-width="1.5"/>
<path fill-rule="evenodd" clip-rule="evenodd" d="M1126 1573.67C1126.46 1573.67 1126.83 1573.29 1126.83 1572.83C1126.83 1572.37 1126.46 1572 1126 1572C1125.54 1572 1125.17 1572.37 1125.17 1572.83C1125.17 1573.29 1125.54 1573.67 1126 1573.67ZM1126.75 1575C1126.75 1574.59 1126.41 1574.25 1126 1574.25C1125.59 1574.25 1125.25 1574.59 1125.25 1575V1577.33C1125.25 1577.75 1125.59 1578.08 1126 1578.08C1126.41 1578.08 1126.75 1577.75 1126.75 1577.33V1575Z" fill="#7C8DB0"/>
<rect width="200" height="40" transform="translate(1113 1588)" fill="white"/>
<rect x="1117" y="1592" width="22" height="32" rx="4" fill="#E9E8FC"/>
<rect x="1144" y="1592" width="22" height="32" rx="4" fill="#E9E8FC"/>
<rect x="1171" y="1592" width="22" height="32" rx="4" fill="#E9E8FC"/>
<path d="M1206.34 1613V1612.02H1208.6V1604.52L1206.82 1605.64L1206.33 1604.78L1208.92 1603.13H1209.74V1612.02H1211.86V1613H1206.34ZM1216.53 1613.13C1216.02 1613.13 1215.52 1613.02 1215 1612.8C1214.49 1612.59 1214.07 1612.3 1213.74 1611.94L1214.18 1611.03C1214.51 1611.39 1214.88 1611.66 1215.28 1611.84C1215.69 1612.02 1216.11 1612.1 1216.54 1612.1C1217.46 1612.1 1218.16 1611.76 1218.66 1611.08C1219.15 1610.4 1219.4 1609.39 1219.4 1608.04V1607.34C1219.21 1607.96 1218.88 1608.45 1218.39 1608.8C1217.91 1609.15 1217.35 1609.32 1216.7 1609.32C1216.12 1609.32 1215.6 1609.19 1215.16 1608.93C1214.71 1608.66 1214.36 1608.29 1214.11 1607.82C1213.85 1607.35 1213.73 1606.82 1213.73 1606.21C1213.73 1605.58 1213.86 1605.03 1214.12 1604.56C1214.39 1604.07 1214.76 1603.69 1215.23 1603.42C1215.7 1603.14 1216.25 1603 1216.86 1603C1218.03 1603 1218.93 1603.43 1219.55 1604.28C1220.19 1605.12 1220.5 1606.3 1220.5 1607.82C1220.5 1609.52 1220.15 1610.83 1219.45 1611.75C1218.75 1612.67 1217.78 1613.13 1216.53 1613.13ZM1216.93 1608.35C1217.56 1608.35 1218.07 1608.15 1218.46 1607.75C1218.85 1607.34 1219.05 1606.81 1219.05 1606.17C1219.05 1605.51 1218.85 1604.99 1218.46 1604.59C1218.07 1604.18 1217.56 1603.97 1216.93 1603.97C1216.32 1603.97 1215.81 1604.18 1215.42 1604.59C1215.03 1604.99 1214.83 1605.51 1214.83 1606.17C1214.83 1606.81 1215.03 1607.34 1215.42 1607.75C1215.81 1608.15 1216.32 1608.35 1216.93 1608.35Z" fill="#7C8DB0"/>
<rect x="1233" y="1592" width="22" height="32" rx="4" fill="#E9E8FC"/>
<rect x="1260" y="1592" width="22" height="32" rx="4" fill="url(#paint63_linear_879_1352)"/>
<rect x="1287" y="1592" width="22" height="32" rx="4" fill="#E9E8FC"/>
<rect width="200" height="40" transform="translate(1113 1632)" fill="white"/>
<rect x="1117" y="1636" width="22" height="32" rx="4" fill="#E9E8FC"/>
<rect x="1144" y="1636" width="22" height="32" rx="4" fill="url(#paint64_linear_879_1352)"/>
<rect x="1171" y="1636" width="22" height="32" rx="4" fill="url(#paint65_linear_879_1352)"/>
<path d="M1205.87 1657V1656.13L1209.24 1652.49C1209.72 1651.97 1210.06 1651.49 1210.26 1651.06C1210.48 1650.63 1210.58 1650.2 1210.58 1649.75C1210.58 1648.6 1209.92 1648.03 1208.58 1648.03C1207.58 1648.03 1206.7 1648.4 1205.94 1649.15L1205.5 1648.25C1205.87 1647.88 1206.33 1647.58 1206.89 1647.35C1207.46 1647.12 1208.05 1647 1208.68 1647C1209.67 1647 1210.42 1647.24 1210.95 1647.7C1211.48 1648.16 1211.75 1648.81 1211.75 1649.66C1211.75 1650.25 1211.6 1650.83 1211.31 1651.4C1211.02 1651.96 1210.58 1652.56 1209.98 1653.19L1207.34 1656.02H1212.15V1657H1205.87ZM1217.2 1657.13C1216.07 1657.13 1215.21 1656.69 1214.62 1655.82C1214.04 1654.96 1213.74 1653.7 1213.74 1652.06C1213.74 1650.41 1214.04 1649.15 1214.62 1648.29C1215.21 1647.43 1216.07 1647 1217.2 1647C1218.34 1647 1219.2 1647.43 1219.78 1648.29C1220.36 1649.14 1220.66 1650.39 1220.66 1652.04C1220.66 1653.7 1220.36 1654.96 1219.76 1655.82C1219.17 1656.69 1218.32 1657.13 1217.2 1657.13ZM1217.2 1656.13C1217.98 1656.13 1218.56 1655.8 1218.94 1655.14C1219.32 1654.48 1219.51 1653.44 1219.51 1652.04C1219.51 1650.64 1219.32 1649.62 1218.95 1648.98C1218.58 1648.32 1217.99 1648 1217.2 1648C1216.42 1648 1215.83 1648.32 1215.45 1648.98C1215.08 1649.63 1214.89 1650.65 1214.89 1652.04C1214.89 1653.44 1215.08 1654.48 1215.45 1655.14C1215.83 1655.8 1216.42 1656.13 1217.2 1656.13Z" fill="#7C8DB0"/>
<rect x="1233" y="1636" width="22" height="32" rx="4" fill="#E9E8FC"/>
<rect x="1260" y="1636" width="22" height="32" rx="4" fill="url(#paint66_linear_879_1352)"/>
<rect x="1287" y="1636" width="22" height="32" rx="4" fill="#E9E8FC"/>
<rect width="200" height="40" transform="translate(1113 1676)" fill="white"/>
<rect x="1117" y="1680" width="22" height="32" rx="4" fill="#E9E8FC"/>
<rect x="1144" y="1680" width="22" height="32" rx="4" fill="url(#paint67_linear_879_1352)"/>
<rect x="1171" y="1680" width="22" height="32" rx="4" fill="#E9E8FC"/>
<path d="M1205.87 1701V1700.13L1209.24 1696.49C1209.72 1695.97 1210.06 1695.49 1210.26 1695.06C1210.48 1694.63 1210.58 1694.2 1210.58 1693.75C1210.58 1692.6 1209.92 1692.03 1208.58 1692.03C1207.58 1692.03 1206.7 1692.4 1205.94 1693.15L1205.5 1692.25C1205.87 1691.88 1206.33 1691.58 1206.89 1691.35C1207.46 1691.12 1208.05 1691 1208.68 1691C1209.67 1691 1210.42 1691.24 1210.95 1691.7C1211.48 1692.16 1211.75 1692.81 1211.75 1693.66C1211.75 1694.25 1211.6 1694.83 1211.31 1695.4C1211.02 1695.96 1210.58 1696.56 1209.98 1697.19L1207.34 1700.02H1212.15V1701H1205.87ZM1214.74 1701V1700.02H1216.99V1692.52L1215.21 1693.64L1214.72 1692.78L1217.31 1691.13H1218.14V1700.02H1220.25V1701H1214.74Z" fill="#7C8DB0"/>
<rect x="1233" y="1680" width="22" height="32" rx="4" fill="url(#paint68_linear_879_1352)"/>
<rect x="1260" y="1680" width="22" height="32" rx="4" fill="url(#paint69_linear_879_1352)"/>
<rect x="1287" y="1680" width="22" height="32" rx="4" fill="url(#paint70_linear_879_1352)"/>
<rect width="200" height="40" transform="translate(1113 1720)" fill="white"/>
<rect x="1117" y="1724" width="22" height="32" rx="4" fill="url(#paint71_linear_879_1352)"/>
<rect x="1144" y="1724" width="22" height="32" rx="4" fill="url(#paint72_linear_879_1352)"/>
<rect x="1171" y="1724" width="22" height="32" rx="4" fill="url(#paint73_linear_879_1352)"/>
<path d="M1205.87 1745V1744.13L1209.24 1740.49C1209.72 1739.97 1210.06 1739.49 1210.26 1739.06C1210.48 1738.63 1210.58 1738.2 1210.58 1737.75C1210.58 1736.6 1209.92 1736.03 1208.58 1736.03C1207.58 1736.03 1206.7 1736.4 1205.94 1737.15L1205.5 1736.25C1205.87 1735.88 1206.33 1735.58 1206.89 1735.35C1207.46 1735.12 1208.05 1735 1208.68 1735C1209.67 1735 1210.42 1735.24 1210.95 1735.7C1211.48 1736.16 1211.75 1736.81 1211.75 1737.66C1211.75 1738.25 1211.6 1738.83 1211.31 1739.4C1211.02 1739.96 1210.58 1740.56 1209.98 1741.19L1207.34 1744.02H1212.15V1745H1205.87ZM1214.26 1745V1744.13L1217.63 1740.49C1218.11 1739.97 1218.45 1739.49 1218.66 1739.06C1218.87 1738.63 1218.98 1738.2 1218.98 1737.75C1218.98 1736.6 1218.31 1736.03 1216.98 1736.03C1215.98 1736.03 1215.1 1736.4 1214.33 1737.15L1213.9 1736.25C1214.26 1735.88 1214.72 1735.58 1215.28 1735.35C1215.85 1735.12 1216.45 1735 1217.07 1735C1218.06 1735 1218.82 1735.24 1219.34 1735.7C1219.87 1736.16 1220.14 1736.81 1220.14 1737.66C1220.14 1738.25 1220 1738.83 1219.71 1739.4C1219.42 1739.96 1218.97 1740.56 1218.38 1741.19L1215.73 1744.02H1220.55V1745H1214.26Z" fill="#7C8DB0"/>
<rect x="1233" y="1724" width="22" height="32" rx="4" fill="#E9E8FC"/>
<rect x="1260" y="1724" width="22" height="32" rx="4" fill="url(#paint74_linear_879_1352)"/>
<rect x="1287" y="1724" width="22" height="32" rx="4" fill="#E9E8FC"/>
<rect width="200" height="40" transform="translate(1113 1764)" fill="white"/>
<rect x="1117" y="1768" width="22" height="32" rx="4" fill="#E9E8FC"/>
<rect x="1144" y="1768" width="22" height="32" rx="4" fill="#E9E8FC"/>
<rect x="1171" y="1768" width="22" height="32" rx="4" fill="url(#paint75_linear_879_1352)"/>
<path d="M1205.87 1789V1788.13L1209.24 1784.49C1209.72 1783.97 1210.06 1783.49 1210.26 1783.06C1210.48 1782.63 1210.58 1782.2 1210.58 1781.75C1210.58 1780.6 1209.92 1780.03 1208.58 1780.03C1207.58 1780.03 1206.7 1780.4 1205.94 1781.15L1205.5 1780.25C1205.87 1779.88 1206.33 1779.58 1206.89 1779.35C1207.46 1779.12 1208.05 1779 1208.68 1779C1209.67 1779 1210.42 1779.24 1210.95 1779.7C1211.48 1780.16 1211.75 1780.81 1211.75 1781.66C1211.75 1782.25 1211.6 1782.83 1211.31 1783.4C1211.02 1783.96 1210.58 1784.56 1209.98 1785.19L1207.34 1788.02H1212.15V1789H1205.87ZM1217.09 1789.13C1216.43 1789.13 1215.81 1789.03 1215.23 1788.83C1214.64 1788.63 1214.14 1788.33 1213.74 1787.95L1214.16 1787.04C1214.62 1787.41 1215.08 1787.68 1215.55 1787.85C1216.01 1788.02 1216.52 1788.1 1217.06 1788.1C1217.77 1788.1 1218.31 1787.95 1218.68 1787.64C1219.07 1787.32 1219.26 1786.86 1219.26 1786.26C1219.26 1785.68 1219.07 1785.24 1218.68 1784.94C1218.3 1784.64 1217.75 1784.49 1217.02 1784.49H1215.56V1783.5H1216.92C1217.55 1783.5 1218.05 1783.33 1218.42 1783.01C1218.79 1782.67 1218.98 1782.21 1218.98 1781.64C1218.98 1781.12 1218.81 1780.73 1218.46 1780.45C1218.12 1780.17 1217.64 1780.03 1217.02 1780.03C1215.99 1780.03 1215.1 1780.4 1214.33 1781.15L1213.91 1780.25C1214.27 1779.86 1214.74 1779.55 1215.3 1779.34C1215.87 1779.12 1216.46 1779 1217.09 1779C1218.04 1779 1218.78 1779.23 1219.31 1779.68C1219.86 1780.12 1220.13 1780.74 1220.13 1781.54C1220.13 1782.09 1219.99 1782.57 1219.71 1782.99C1219.43 1783.4 1219.04 1783.7 1218.54 1783.89C1219.13 1784.05 1219.59 1784.34 1219.92 1784.77C1220.24 1785.19 1220.41 1785.71 1220.41 1786.34C1220.41 1787.19 1220.11 1787.87 1219.51 1788.37C1218.92 1788.87 1218.11 1789.13 1217.09 1789.13Z" fill="#7C8DB0"/>
<rect x="1233" y="1768" width="22" height="32" rx="4" fill="#E9E8FC"/>
<rect x="1260" y="1768" width="22" height="32" rx="4" fill="url(#paint76_linear_879_1352)"/>
<rect x="1287" y="1768" width="22" height="32" rx="4" fill="#E9E8FC"/>
<rect width="200" height="40" transform="translate(1113 1808)" fill="white"/>
<rect x="1117" y="1812" width="22" height="32" rx="4" fill="url(#paint77_linear_879_1352)"/>
<rect x="1144" y="1812" width="22" height="32" rx="4" fill="url(#paint78_linear_879_1352)"/>
<rect x="1171" y="1812" width="22" height="32" rx="4" fill="url(#paint79_linear_879_1352)"/>
<path d="M1205.87 1833V1832.13L1209.24 1828.49C1209.72 1827.97 1210.06 1827.49 1210.26 1827.06C1210.48 1826.63 1210.58 1826.2 1210.58 1825.75C1210.58 1824.6 1209.92 1824.03 1208.58 1824.03C1207.58 1824.03 1206.7 1824.4 1205.94 1825.15L1205.5 1824.25C1205.87 1823.88 1206.33 1823.58 1206.89 1823.35C1207.46 1823.12 1208.05 1823 1208.68 1823C1209.67 1823 1210.42 1823.24 1210.95 1823.7C1211.48 1824.16 1211.75 1824.81 1211.75 1825.66C1211.75 1826.25 1211.6 1826.83 1211.31 1827.4C1211.02 1827.96 1210.58 1828.56 1209.98 1829.19L1207.34 1832.02H1212.15V1833H1205.87ZM1218.28 1833V1830.89H1213.73V1830.02L1218.47 1823.13H1219.44V1829.91H1220.91V1830.89H1219.44V1833H1218.28ZM1218.28 1829.91V1825.02L1214.92 1829.91H1218.28Z" fill="#7C8DB0"/>
<rect x="1233" y="1812" width="22" height="32" rx="4" fill="url(#paint80_linear_879_1352)"/>
<rect x="1260" y="1812" width="22" height="32" rx="4" fill="url(#paint81_linear_879_1352)"/>
<rect x="1287" y="1812" width="22" height="32" rx="4" fill="#E9E8FC"/>
<rect width="200" height="40" transform="translate(1113 1852)" fill="white"/>
<rect x="1117" y="1856" width="22" height="32" rx="4" fill="url(#paint82_linear_879_1352)"/>
<rect x="1144" y="1856" width="22" height="32" rx="4" fill="#E9E8FC"/>
<rect x="1171" y="1856" width="22" height="32" rx="4" fill="#E9E8FC"/>
<path d="M1205.87 1877V1876.13L1209.24 1872.49C1209.72 1871.97 1210.06 1871.49 1210.26 1871.06C1210.48 1870.63 1210.58 1870.2 1210.58 1869.75C1210.58 1868.6 1209.92 1868.03 1208.58 1868.03C1207.58 1868.03 1206.7 1868.4 1205.94 1869.15L1205.5 1868.25C1205.87 1867.88 1206.33 1867.58 1206.89 1867.35C1207.46 1867.12 1208.05 1867 1208.68 1867C1209.67 1867 1210.42 1867.24 1210.95 1867.7C1211.48 1868.16 1211.75 1868.81 1211.75 1869.66C1211.75 1870.25 1211.6 1870.83 1211.31 1871.4C1211.02 1871.96 1210.58 1872.56 1209.98 1873.19L1207.34 1876.02H1212.15V1877H1205.87ZM1217.41 1877.13C1216.78 1877.13 1216.17 1877.02 1215.59 1876.82C1215.01 1876.61 1214.52 1876.32 1214.12 1875.95L1214.55 1875.04C1215.42 1875.75 1216.37 1876.1 1217.4 1876.1C1218.08 1876.1 1218.61 1875.91 1219.01 1875.53C1219.4 1875.15 1219.59 1874.64 1219.59 1874.02C1219.59 1873.37 1219.41 1872.85 1219.03 1872.44C1218.66 1872.03 1218.15 1871.82 1217.49 1871.82C1216.55 1871.82 1215.81 1872.21 1215.27 1873H1214.43V1867.13H1220.15V1868.11H1215.56V1871.64C1216.1 1871.1 1216.82 1870.83 1217.7 1870.83C1218.32 1870.83 1218.86 1870.96 1219.31 1871.22C1219.77 1871.48 1220.12 1871.85 1220.36 1872.32C1220.62 1872.79 1220.74 1873.34 1220.74 1873.96C1220.74 1874.58 1220.61 1875.12 1220.34 1875.6C1220.07 1876.08 1219.68 1876.45 1219.17 1876.72C1218.68 1876.99 1218.09 1877.13 1217.41 1877.13Z" fill="#7C8DB0"/>
<rect x="1233" y="1856" width="22" height="32" rx="4" fill="#E9E8FC"/>
<rect x="1260" y="1856" width="22" height="32" rx="4" fill="url(#paint83_linear_879_1352)"/>
<rect x="1287" y="1856" width="22" height="32" rx="4" fill="#E9E8FC"/>
<rect width="200" height="40" transform="translate(1113 1896)" fill="white"/>
<rect x="1117" y="1900" width="22" height="32" rx="4" fill="url(#paint84_linear_879_1352)"/>
<rect x="1144" y="1900" width="22" height="32" rx="4" fill="url(#paint85_linear_879_1352)"/>
<rect x="1171" y="1900" width="22" height="32" rx="4" fill="url(#paint86_linear_879_1352)"/>
<path d="M1205.87 1921V1920.13L1209.24 1916.49C1209.72 1915.97 1210.06 1915.49 1210.26 1915.06C1210.48 1914.63 1210.58 1914.2 1210.58 1913.75C1210.58 1912.6 1209.92 1912.03 1208.58 1912.03C1207.58 1912.03 1206.7 1912.4 1205.94 1913.15L1205.5 1912.25C1205.87 1911.88 1206.33 1911.58 1206.89 1911.35C1207.46 1911.12 1208.05 1911 1208.68 1911C1209.67 1911 1210.42 1911.24 1210.95 1911.7C1211.48 1912.16 1211.75 1912.81 1211.75 1913.66C1211.75 1914.25 1211.6 1914.83 1211.31 1915.4C1211.02 1915.96 1210.58 1916.56 1209.98 1917.19L1207.34 1920.02H1212.15V1921H1205.87ZM1217.54 1921.13C1216.37 1921.13 1215.47 1920.71 1214.83 1919.87C1214.21 1919.02 1213.9 1917.83 1213.9 1916.31C1213.9 1914.6 1214.25 1913.29 1214.95 1912.38C1215.65 1911.46 1216.63 1911 1217.89 1911C1218.39 1911 1218.89 1911.11 1219.4 1911.33C1219.91 1911.54 1220.33 1911.83 1220.66 1912.19L1220.24 1913.09C1219.89 1912.74 1219.51 1912.47 1219.1 1912.29C1218.7 1912.11 1218.29 1912.03 1217.86 1912.03C1216.94 1912.03 1216.24 1912.37 1215.74 1913.05C1215.26 1913.73 1215.02 1914.74 1215.02 1916.09V1916.77C1215.19 1916.16 1215.52 1915.68 1216 1915.33C1216.48 1914.98 1217.05 1914.81 1217.7 1914.81C1218.28 1914.81 1218.8 1914.95 1219.24 1915.22C1219.69 1915.48 1220.04 1915.84 1220.29 1916.31C1220.55 1916.78 1220.67 1917.31 1220.67 1917.92C1220.67 1918.55 1220.54 1919.1 1220.27 1919.59C1220 1920.06 1219.64 1920.44 1219.16 1920.72C1218.69 1920.99 1218.15 1921.13 1217.54 1921.13ZM1217.47 1920.15C1218.09 1920.15 1218.6 1919.95 1218.98 1919.54C1219.37 1919.14 1219.57 1918.62 1219.57 1917.96C1219.57 1917.32 1219.37 1916.8 1218.98 1916.39C1218.6 1915.98 1218.09 1915.78 1217.47 1915.78C1216.84 1915.78 1216.33 1915.98 1215.94 1916.39C1215.56 1916.8 1215.37 1917.32 1215.37 1917.96C1215.37 1918.62 1215.56 1919.14 1215.94 1919.54C1216.33 1919.95 1216.84 1920.15 1217.47 1920.15Z" fill="#7C8DB0"/>
<rect x="1233" y="1900" width="22" height="32" rx="4" fill="url(#paint87_linear_879_1352)"/>
<rect x="1260" y="1900" width="22" height="32" rx="4" fill="url(#paint88_linear_879_1352)"/>
<rect x="1287" y="1900" width="22" height="32" rx="4" fill="url(#paint89_linear_879_1352)"/>
<rect width="200" height="40" transform="translate(1113 1940)" fill="white"/>
<rect x="1117" y="1944" width="22" height="32" rx="4" fill="#E9E8FC"/>
<rect x="1144" y="1944" width="22" height="32" rx="4" fill="url(#paint90_linear_879_1352)"/>
<rect x="1171" y="1944" width="22" height="32" rx="4" fill="url(#paint91_linear_879_1352)"/>
<path d="M1205.87 1965V1964.13L1209.24 1960.49C1209.72 1959.97 1210.06 1959.49 1210.26 1959.06C1210.48 1958.63 1210.58 1958.2 1210.58 1957.75C1210.58 1956.6 1209.92 1956.03 1208.58 1956.03C1207.58 1956.03 1206.7 1956.4 1205.94 1957.15L1205.5 1956.25C1205.87 1955.88 1206.33 1955.58 1206.89 1955.35C1207.46 1955.12 1208.05 1955 1208.68 1955C1209.67 1955 1210.42 1955.24 1210.95 1955.7C1211.48 1956.16 1211.75 1956.81 1211.75 1957.66C1211.75 1958.25 1211.6 1958.83 1211.31 1959.4C1211.02 1959.96 1210.58 1960.56 1209.98 1961.19L1207.34 1964.02H1212.15V1965H1205.87ZM1214.57 1965L1219.16 1956.12H1213.94V1955.13H1220.46V1956L1215.84 1965H1214.57Z" fill="#7C8DB0"/>
<rect x="1233" y="1944" width="22" height="32" rx="4" fill="#E9E8FC"/>
<rect x="1260" y="1944" width="22" height="32" rx="4" fill="url(#paint92_linear_879_1352)"/>
<rect x="1287" y="1944" width="22" height="32" rx="4" fill="#E9E8FC"/>
<rect width="200" height="40" transform="translate(1113 1984)" fill="white"/>
<rect x="1117" y="1988" width="22" height="32" rx="4" fill="url(#paint93_linear_879_1352)"/>
<rect x="1144" y="1988" width="22" height="32" rx="4" fill="url(#paint94_linear_879_1352)"/>
<rect x="1171" y="1988" width="22" height="32" rx="4" fill="url(#paint95_linear_879_1352)"/>
<path d="M1205.87 2009V2008.13L1209.24 2004.49C1209.72 2003.97 1210.06 2003.49 1210.26 2003.06C1210.48 2002.63 1210.58 2002.2 1210.58 2001.75C1210.58 2000.6 1209.92 2000.03 1208.58 2000.03C1207.58 2000.03 1206.7 2000.4 1205.94 2001.15L1205.5 2000.25C1205.87 1999.88 1206.33 1999.58 1206.89 1999.35C1207.46 1999.12 1208.05 1999 1208.68 1999C1209.67 1999 1210.42 1999.24 1210.95 1999.7C1211.48 2000.16 1211.75 2000.81 1211.75 2001.66C1211.75 2002.25 1211.6 2002.83 1211.31 2003.4C1211.02 2003.96 1210.58 2004.56 1209.98 2005.19L1207.34 2008.02H1212.15V2009H1205.87ZM1217.2 2009.13C1216.09 2009.13 1215.23 2008.89 1214.61 2008.41C1213.99 2007.93 1213.69 2007.25 1213.69 2006.38C1213.69 2005.78 1213.85 2005.26 1214.18 2004.83C1214.51 2004.4 1214.96 2004.1 1215.51 2003.95C1215.01 2003.76 1214.62 2003.46 1214.34 2003.05C1214.06 2002.64 1213.92 2002.17 1213.92 2001.64C1213.92 2000.81 1214.22 2000.16 1214.81 1999.7C1215.4 1999.24 1216.2 1999 1217.2 1999C1218.2 1999 1219 1999.24 1219.59 1999.7C1220.19 2000.16 1220.49 2000.81 1220.49 2001.64C1220.49 2002.17 1220.35 2002.64 1220.06 2003.06C1219.78 2003.47 1219.39 2003.77 1218.91 2003.95C1219.46 2004.1 1219.9 2004.4 1220.22 2004.83C1220.55 2005.26 1220.71 2005.78 1220.71 2006.38C1220.71 2007.25 1220.41 2007.93 1219.79 2008.41C1219.17 2008.89 1218.31 2009.13 1217.2 2009.13ZM1217.2 2003.53C1217.88 2003.53 1218.41 2003.37 1218.8 2003.05C1219.19 2002.72 1219.38 2002.28 1219.38 2001.73C1219.38 2001.17 1219.19 2000.74 1218.8 2000.43C1218.41 2000.11 1217.88 1999.96 1217.2 1999.96C1216.52 1999.96 1215.99 2000.11 1215.6 2000.43C1215.22 2000.74 1215.03 2001.17 1215.03 2001.73C1215.03 2002.28 1215.22 2002.72 1215.6 2003.05C1215.99 2003.37 1216.52 2003.53 1217.2 2003.53ZM1217.2 2008.17C1218.81 2008.17 1219.61 2007.55 1219.61 2006.31C1219.61 2005.09 1218.81 2004.48 1217.2 2004.48C1215.59 2004.48 1214.79 2005.09 1214.79 2006.31C1214.79 2007.55 1215.59 2008.17 1217.2 2008.17Z" fill="#7C8DB0"/>
<rect x="1233" y="1988" width="22" height="32" rx="4" fill="url(#paint96_linear_879_1352)"/>
<rect x="1260" y="1988" width="22" height="32" rx="4" fill="url(#paint97_linear_879_1352)"/>
<rect x="1287" y="1988" width="22" height="32" rx="4" fill="url(#paint98_linear_879_1352)"/>
<rect width="200" height="18" transform="translate(1113 2028)" fill="white"/>
<path d="M1139.41 2041V2032.54H1144.88V2033.55H1140.61V2036.2H1144.63V2037.21H1140.61V2039.99H1144.88V2041H1139.41ZM1145.56 2041L1148 2037.98L1145.72 2035.14H1147.13L1148.71 2037.15L1150.28 2035.14H1151.69L1149.4 2037.99L1151.85 2041H1150.41L1148.69 2038.84L1146.99 2041H1145.56ZM1152.64 2033.79V2032.53H1154.06V2033.79H1152.64ZM1152.75 2041V2035.14H1153.96V2041H1152.75ZM1158.17 2041.11C1157.43 2041.11 1156.88 2040.92 1156.52 2040.54C1156.16 2040.17 1155.98 2039.62 1155.98 2038.91V2036.08H1154.84V2035.14H1155.98V2033.38H1157.19V2035.14H1159.01V2036.08H1157.19V2038.82C1157.19 2039.24 1157.28 2039.56 1157.46 2039.78C1157.64 2039.99 1157.94 2040.1 1158.35 2040.1C1158.47 2040.1 1158.6 2040.09 1158.72 2040.06C1158.84 2040.03 1158.96 2040 1159.08 2039.96L1159.27 2040.87C1159.15 2040.94 1158.98 2041 1158.77 2041.04C1158.56 2041.08 1158.36 2041.11 1158.17 2041.11ZM1163.21 2041V2035.14H1164.38V2036.19C1164.69 2035.49 1165.32 2035.1 1166.28 2035.02L1166.67 2035L1166.76 2036.03L1166.03 2036.1C1164.96 2036.21 1164.43 2036.76 1164.43 2037.75V2041H1163.21ZM1170.14 2041.11C1169.55 2041.11 1169.04 2040.98 1168.61 2040.74C1168.18 2040.49 1167.84 2040.14 1167.6 2039.69C1167.37 2039.24 1167.25 2038.7 1167.25 2038.07C1167.25 2037.45 1167.37 2036.91 1167.6 2036.46C1167.84 2036.01 1168.18 2035.66 1168.61 2035.41C1169.04 2035.16 1169.55 2035.04 1170.14 2035.04C1170.72 2035.04 1171.22 2035.16 1171.66 2035.41C1172.09 2035.66 1172.42 2036.01 1172.66 2036.46C1172.9 2036.91 1173.02 2037.45 1173.02 2038.07C1173.02 2038.7 1172.9 2039.24 1172.66 2039.69C1172.42 2040.14 1172.09 2040.49 1171.66 2040.74C1171.22 2040.98 1170.72 2041.11 1170.14 2041.11ZM1170.14 2040.17C1170.64 2040.17 1171.04 2039.99 1171.34 2039.63C1171.65 2039.27 1171.8 2038.75 1171.8 2038.07C1171.8 2037.39 1171.65 2036.88 1171.34 2036.52C1171.04 2036.16 1170.64 2035.98 1170.14 2035.98C1169.64 2035.98 1169.24 2036.16 1168.93 2036.52C1168.63 2036.88 1168.48 2037.39 1168.48 2038.07C1168.48 2038.75 1168.63 2039.27 1168.93 2039.63C1169.24 2039.99 1169.64 2040.17 1170.14 2040.17ZM1175.86 2041L1173.63 2035.14H1174.88L1176.45 2039.58L1178.07 2035.14H1179.01L1180.6 2039.61L1182.2 2035.14H1183.39L1181.16 2041H1180.05L1178.5 2036.81L1176.97 2041H1175.86Z" fill="#7C8DB0"/>
<circle cx="1126" cy="2037" r="6" stroke="#7C8DB0" stroke-width="1.5"/>
<path fill-rule="evenodd" clip-rule="evenodd" d="M1126 2035.67C1126.46 2035.67 1126.83 2035.29 1126.83 2034.83C1126.83 2034.37 1126.46 2034 1126 2034C1125.54 2034 1125.17 2034.37 1125.17 2034.83C1125.17 2035.29 1125.54 2035.67 1126 2035.67ZM1126.75 2037C1126.75 2036.59 1126.41 2036.25 1126 2036.25C1125.59 2036.25 1125.25 2036.59 1125.25 2037V2039.33C1125.25 2039.75 1125.59 2040.08 1126 2040.08C1126.41 2040.08 1126.75 2039.75 1126.75 2039.33V2037Z" fill="#7C8DB0"/>
<rect width="200" height="40" transform="translate(1113 2050)" fill="white"/>
<rect x="1117" y="2054" width="22" height="32" rx="4" fill="#E9E8FC"/>
<rect x="1144" y="2054" width="22" height="32" rx="4" fill="url(#paint99_linear_879_1352)"/>
<rect x="1171" y="2054" width="22" height="32" rx="4" fill="#E9E8FC"/>
<path d="M1205.87 2075V2074.13L1209.24 2070.49C1209.72 2069.97 1210.06 2069.49 1210.26 2069.06C1210.48 2068.63 1210.58 2068.2 1210.58 2067.75C1210.58 2066.6 1209.92 2066.03 1208.58 2066.03C1207.58 2066.03 1206.7 2066.4 1205.94 2067.15L1205.5 2066.25C1205.87 2065.88 1206.33 2065.58 1206.89 2065.35C1207.46 2065.12 1208.05 2065 1208.68 2065C1209.67 2065 1210.42 2065.24 1210.95 2065.7C1211.48 2066.16 1211.75 2066.81 1211.75 2067.66C1211.75 2068.25 1211.6 2068.83 1211.31 2069.4C1211.02 2069.96 1210.58 2070.56 1209.98 2071.19L1207.34 2074.02H1212.15V2075H1205.87ZM1216.53 2075.13C1216.02 2075.13 1215.52 2075.02 1215 2074.8C1214.49 2074.59 1214.07 2074.3 1213.74 2073.94L1214.18 2073.03C1214.51 2073.39 1214.88 2073.66 1215.28 2073.84C1215.69 2074.02 1216.11 2074.1 1216.54 2074.1C1217.46 2074.1 1218.16 2073.76 1218.66 2073.08C1219.15 2072.4 1219.4 2071.39 1219.4 2070.04V2069.34C1219.21 2069.96 1218.88 2070.45 1218.39 2070.8C1217.91 2071.15 1217.35 2071.32 1216.7 2071.32C1216.12 2071.32 1215.6 2071.19 1215.16 2070.93C1214.71 2070.66 1214.36 2070.29 1214.11 2069.82C1213.85 2069.35 1213.73 2068.82 1213.73 2068.21C1213.73 2067.58 1213.86 2067.03 1214.12 2066.56C1214.39 2066.07 1214.76 2065.69 1215.23 2065.42C1215.7 2065.14 1216.25 2065 1216.86 2065C1218.03 2065 1218.93 2065.43 1219.55 2066.28C1220.19 2067.12 1220.5 2068.3 1220.5 2069.82C1220.5 2071.52 1220.15 2072.83 1219.45 2073.75C1218.75 2074.67 1217.78 2075.13 1216.53 2075.13ZM1216.93 2070.35C1217.56 2070.35 1218.07 2070.15 1218.46 2069.75C1218.85 2069.34 1219.05 2068.81 1219.05 2068.17C1219.05 2067.51 1218.85 2066.99 1218.46 2066.59C1218.07 2066.18 1217.56 2065.97 1216.93 2065.97C1216.32 2065.97 1215.81 2066.18 1215.42 2066.59C1215.03 2066.99 1214.83 2067.51 1214.83 2068.17C1214.83 2068.81 1215.03 2069.34 1215.42 2069.75C1215.81 2070.15 1216.32 2070.35 1216.93 2070.35Z" fill="#7C8DB0"/>
<rect x="1233" y="2054" width="22" height="32" rx="4" fill="#E9E8FC"/>
<rect x="1260" y="2054" width="22" height="32" rx="4" fill="url(#paint100_linear_879_1352)"/>
<rect x="1287" y="2054" width="22" height="32" rx="4" fill="#E9E8FC"/>
<rect width="200" height="40" transform="translate(1113 2094)" fill="white"/>
<rect x="1117" y="2098" width="22" height="32" rx="4" fill="#E9E8FC"/>
<rect x="1144" y="2098" width="22" height="32" rx="4" fill="#E9E8FC"/>
<rect x="1171" y="2098" width="22" height="32" rx="4" fill="#E9E8FC"/>
<path d="M1208.69 2119.13C1208.04 2119.13 1207.42 2119.03 1206.83 2118.83C1206.24 2118.63 1205.75 2118.33 1205.35 2117.95L1205.77 2117.04C1206.22 2117.41 1206.69 2117.68 1207.15 2117.85C1207.62 2118.02 1208.12 2118.1 1208.67 2118.1C1209.37 2118.1 1209.92 2117.95 1210.29 2117.64C1210.67 2117.32 1210.86 2116.86 1210.86 2116.26C1210.86 2115.68 1210.67 2115.24 1210.29 2114.94C1209.91 2114.64 1209.35 2114.49 1208.62 2114.49H1207.17V2113.5H1208.53C1209.16 2113.5 1209.66 2113.33 1210.02 2113.01C1210.4 2112.67 1210.58 2112.21 1210.58 2111.64C1210.58 2111.12 1210.41 2110.73 1210.07 2110.45C1209.73 2110.17 1209.25 2110.03 1208.62 2110.03C1207.6 2110.03 1206.7 2110.4 1205.94 2111.15L1205.52 2110.25C1205.88 2109.86 1206.34 2109.55 1206.9 2109.34C1207.47 2109.12 1208.07 2109 1208.69 2109C1209.65 2109 1210.39 2109.23 1210.92 2109.68C1211.46 2110.12 1211.73 2110.74 1211.73 2111.54C1211.73 2112.09 1211.59 2112.57 1211.31 2112.99C1211.03 2113.4 1210.64 2113.7 1210.15 2113.89C1210.74 2114.05 1211.19 2114.34 1211.52 2114.77C1211.85 2115.19 1212.01 2115.71 1212.01 2116.34C1212.01 2117.19 1211.71 2117.87 1211.12 2118.37C1210.53 2118.87 1209.72 2119.13 1208.69 2119.13ZM1217.2 2119.13C1216.07 2119.13 1215.21 2118.69 1214.62 2117.82C1214.04 2116.96 1213.74 2115.7 1213.74 2114.06C1213.74 2112.41 1214.04 2111.15 1214.62 2110.29C1215.21 2109.43 1216.07 2109 1217.2 2109C1218.34 2109 1219.2 2109.43 1219.78 2110.29C1220.36 2111.14 1220.66 2112.39 1220.66 2114.04C1220.66 2115.7 1220.36 2116.96 1219.76 2117.82C1219.17 2118.69 1218.32 2119.13 1217.2 2119.13ZM1217.2 2118.13C1217.98 2118.13 1218.56 2117.8 1218.94 2117.14C1219.32 2116.48 1219.51 2115.44 1219.51 2114.04C1219.51 2112.64 1219.32 2111.62 1218.95 2110.98C1218.58 2110.32 1217.99 2110 1217.2 2110C1216.42 2110 1215.83 2110.32 1215.45 2110.98C1215.08 2111.63 1214.89 2112.65 1214.89 2114.04C1214.89 2115.44 1215.08 2116.48 1215.45 2117.14C1215.83 2117.8 1216.42 2118.13 1217.2 2118.13Z" fill="#7C8DB0"/>
<rect x="1233" y="2098" width="22" height="32" rx="4" fill="url(#paint101_linear_879_1352)"/>
<rect x="1260" y="2098" width="22" height="32" rx="4" fill="url(#paint102_linear_879_1352)"/>
<rect x="1287" y="2098" width="22" height="32" rx="4" fill="url(#paint103_linear_879_1352)"/>
<rect width="200" height="40" transform="translate(1113 2138)" fill="white"/>
<rect x="1117" y="2142" width="22" height="32" rx="4" fill="url(#paint104_linear_879_1352)"/>
<rect x="1144" y="2142" width="22" height="32" rx="4" fill="url(#paint105_linear_879_1352)"/>
<rect x="1171" y="2142" width="22" height="32" rx="4" fill="url(#paint106_linear_879_1352)"/>
<path d="M1208.69 2163.13C1208.04 2163.13 1207.42 2163.03 1206.83 2162.83C1206.24 2162.63 1205.75 2162.33 1205.35 2161.95L1205.77 2161.04C1206.22 2161.41 1206.69 2161.68 1207.15 2161.85C1207.62 2162.02 1208.12 2162.1 1208.67 2162.1C1209.37 2162.1 1209.92 2161.95 1210.29 2161.64C1210.67 2161.32 1210.86 2160.86 1210.86 2160.26C1210.86 2159.68 1210.67 2159.24 1210.29 2158.94C1209.91 2158.64 1209.35 2158.49 1208.62 2158.49H1207.17V2157.5H1208.53C1209.16 2157.5 1209.66 2157.33 1210.02 2157.01C1210.4 2156.67 1210.58 2156.21 1210.58 2155.64C1210.58 2155.12 1210.41 2154.73 1210.07 2154.45C1209.73 2154.17 1209.25 2154.03 1208.62 2154.03C1207.6 2154.03 1206.7 2154.4 1205.94 2155.15L1205.52 2154.25C1205.88 2153.86 1206.34 2153.55 1206.9 2153.34C1207.47 2153.12 1208.07 2153 1208.69 2153C1209.65 2153 1210.39 2153.23 1210.92 2153.68C1211.46 2154.12 1211.73 2154.74 1211.73 2155.54C1211.73 2156.09 1211.59 2156.57 1211.31 2156.99C1211.03 2157.4 1210.64 2157.7 1210.15 2157.89C1210.74 2158.05 1211.19 2158.34 1211.52 2158.77C1211.85 2159.19 1212.01 2159.71 1212.01 2160.34C1212.01 2161.19 1211.71 2161.87 1211.12 2162.37C1210.53 2162.87 1209.72 2163.13 1208.69 2163.13ZM1214.74 2163V2162.02H1216.99V2154.52L1215.21 2155.64L1214.72 2154.78L1217.31 2153.13H1218.14V2162.02H1220.25V2163H1214.74Z" fill="#7C8DB0"/>
<rect x="1233" y="2142" width="22" height="32" rx="4" fill="#E9E8FC"/>
<rect x="1260" y="2142" width="22" height="32" rx="4" fill="url(#paint107_linear_879_1352)"/>
<rect x="1287" y="2142" width="22" height="32" rx="4" fill="#E9E8FC"/>
<rect width="200" height="40" transform="translate(1113 2182)" fill="white"/>
<rect x="1117" y="2186" width="22" height="32" rx="4" fill="#E9E8FC"/>
<rect x="1144" y="2186" width="22" height="32" rx="4" fill="#E9E8FC"/>
<rect x="1171" y="2186" width="22" height="32" rx="4" fill="url(#paint108_linear_879_1352)"/>
<path d="M1208.69 2207.13C1208.04 2207.13 1207.42 2207.03 1206.83 2206.83C1206.24 2206.63 1205.75 2206.33 1205.35 2205.95L1205.77 2205.04C1206.22 2205.41 1206.69 2205.68 1207.15 2205.85C1207.62 2206.02 1208.12 2206.1 1208.67 2206.1C1209.37 2206.1 1209.92 2205.95 1210.29 2205.64C1210.67 2205.32 1210.86 2204.86 1210.86 2204.26C1210.86 2203.68 1210.67 2203.24 1210.29 2202.94C1209.91 2202.64 1209.35 2202.49 1208.62 2202.49H1207.17V2201.5H1208.53C1209.16 2201.5 1209.66 2201.33 1210.02 2201.01C1210.4 2200.67 1210.58 2200.21 1210.58 2199.64C1210.58 2199.12 1210.41 2198.73 1210.07 2198.45C1209.73 2198.17 1209.25 2198.03 1208.62 2198.03C1207.6 2198.03 1206.7 2198.4 1205.94 2199.15L1205.52 2198.25C1205.88 2197.86 1206.34 2197.55 1206.9 2197.34C1207.47 2197.12 1208.07 2197 1208.69 2197C1209.65 2197 1210.39 2197.23 1210.92 2197.68C1211.46 2198.12 1211.73 2198.74 1211.73 2199.54C1211.73 2200.09 1211.59 2200.57 1211.31 2200.99C1211.03 2201.4 1210.64 2201.7 1210.15 2201.89C1210.74 2202.05 1211.19 2202.34 1211.52 2202.77C1211.85 2203.19 1212.01 2203.71 1212.01 2204.34C1212.01 2205.19 1211.71 2205.87 1211.12 2206.37C1210.53 2206.87 1209.72 2207.13 1208.69 2207.13ZM1214.26 2207V2206.13L1217.63 2202.49C1218.11 2201.97 1218.45 2201.49 1218.66 2201.06C1218.87 2200.63 1218.98 2200.2 1218.98 2199.75C1218.98 2198.6 1218.31 2198.03 1216.98 2198.03C1215.98 2198.03 1215.1 2198.4 1214.33 2199.15L1213.9 2198.25C1214.26 2197.88 1214.72 2197.58 1215.28 2197.35C1215.85 2197.12 1216.45 2197 1217.07 2197C1218.06 2197 1218.82 2197.24 1219.34 2197.7C1219.87 2198.16 1220.14 2198.81 1220.14 2199.66C1220.14 2200.25 1220 2200.83 1219.71 2201.4C1219.42 2201.96 1218.97 2202.56 1218.38 2203.19L1215.73 2206.02H1220.55V2207H1214.26Z" fill="#7C8DB0"/>
<rect x="1233" y="2186" width="22" height="32" rx="4" fill="url(#paint109_linear_879_1352)"/>
<rect x="1260" y="2186" width="22" height="32" rx="4" fill="url(#paint110_linear_879_1352)"/>
<rect x="1287" y="2186" width="22" height="32" rx="4" fill="url(#paint111_linear_879_1352)"/>
<rect width="200" height="40" transform="translate(1113 2226)" fill="white"/>
<rect x="1117" y="2230" width="22" height="32" rx="4" fill="url(#paint112_linear_879_1352)"/>
<rect x="1144" y="2230" width="22" height="32" rx="4" fill="url(#paint113_linear_879_1352)"/>
<rect x="1171" y="2230" width="22" height="32" rx="4" fill="url(#paint114_linear_879_1352)"/>
<path d="M1208.69 2251.13C1208.04 2251.13 1207.42 2251.03 1206.83 2250.83C1206.24 2250.63 1205.75 2250.33 1205.35 2249.95L1205.77 2249.04C1206.22 2249.41 1206.69 2249.68 1207.15 2249.85C1207.62 2250.02 1208.12 2250.1 1208.67 2250.1C1209.37 2250.1 1209.92 2249.95 1210.29 2249.64C1210.67 2249.32 1210.86 2248.86 1210.86 2248.26C1210.86 2247.68 1210.67 2247.24 1210.29 2246.94C1209.91 2246.64 1209.35 2246.49 1208.62 2246.49H1207.17V2245.5H1208.53C1209.16 2245.5 1209.66 2245.33 1210.02 2245.01C1210.4 2244.67 1210.58 2244.21 1210.58 2243.64C1210.58 2243.12 1210.41 2242.73 1210.07 2242.45C1209.73 2242.17 1209.25 2242.03 1208.62 2242.03C1207.6 2242.03 1206.7 2242.4 1205.94 2243.15L1205.52 2242.25C1205.88 2241.86 1206.34 2241.55 1206.9 2241.34C1207.47 2241.12 1208.07 2241 1208.69 2241C1209.65 2241 1210.39 2241.23 1210.92 2241.68C1211.46 2242.12 1211.73 2242.74 1211.73 2243.54C1211.73 2244.09 1211.59 2244.57 1211.31 2244.99C1211.03 2245.4 1210.64 2245.7 1210.15 2245.89C1210.74 2246.05 1211.19 2246.34 1211.52 2246.77C1211.85 2247.19 1212.01 2247.71 1212.01 2248.34C1212.01 2249.19 1211.71 2249.87 1211.12 2250.37C1210.53 2250.87 1209.72 2251.13 1208.69 2251.13ZM1217.09 2251.13C1216.43 2251.13 1215.81 2251.03 1215.23 2250.83C1214.64 2250.63 1214.14 2250.33 1213.74 2249.95L1214.16 2249.04C1214.62 2249.41 1215.08 2249.68 1215.55 2249.85C1216.01 2250.02 1216.52 2250.1 1217.06 2250.1C1217.77 2250.1 1218.31 2249.95 1218.68 2249.64C1219.07 2249.32 1219.26 2248.86 1219.26 2248.26C1219.26 2247.68 1219.07 2247.24 1218.68 2246.94C1218.3 2246.64 1217.75 2246.49 1217.02 2246.49H1215.56V2245.5H1216.92C1217.55 2245.5 1218.05 2245.33 1218.42 2245.01C1218.79 2244.67 1218.98 2244.21 1218.98 2243.64C1218.98 2243.12 1218.81 2242.73 1218.46 2242.45C1218.12 2242.17 1217.64 2242.03 1217.02 2242.03C1215.99 2242.03 1215.1 2242.4 1214.33 2243.15L1213.91 2242.25C1214.27 2241.86 1214.74 2241.55 1215.3 2241.34C1215.87 2241.12 1216.46 2241 1217.09 2241C1218.04 2241 1218.78 2241.23 1219.31 2241.68C1219.86 2242.12 1220.13 2242.74 1220.13 2243.54C1220.13 2244.09 1219.99 2244.57 1219.71 2244.99C1219.43 2245.4 1219.04 2245.7 1218.54 2245.89C1219.13 2246.05 1219.59 2246.34 1219.92 2246.77C1220.24 2247.19 1220.41 2247.71 1220.41 2248.34C1220.41 2249.19 1220.11 2249.87 1219.51 2250.37C1218.92 2250.87 1218.11 2251.13 1217.09 2251.13Z" fill="#7C8DB0"/>
<rect x="1233" y="2230" width="22" height="32" rx="4" fill="url(#paint115_linear_879_1352)"/>
<rect x="1260" y="2230" width="22" height="32" rx="4" fill="url(#paint116_linear_879_1352)"/>
<rect x="1287" y="2230" width="22" height="32" rx="4" fill="#E9E8FC"/>
<defs>
<linearGradient id="paint0_linear_879_1352" x1="151" y1="1312" x2="2275" y2="1312" gradientUnits="userSpaceOnUse">
<stop stop-color="#99BBFF"/>
<stop offset="0.489583" stop-color="#CCCCFF"/>
<stop offset="1" stop-color="#99BBFF"/>
</linearGradient>
<linearGradient id="paint1_linear_879_1352" x1="1136" y1="630" x2="1136" y2="670" gradientUnits="userSpaceOnUse">
<stop stop-color="#5CD6C0"/>
<stop offset="1" stop-color="#22C3A6"/>
</linearGradient>
<linearGradient id="paint2_linear_879_1352" x1="1290" y1="630" x2="1290" y2="670" gradientUnits="userSpaceOnUse">
<stop stop-color="#5CD6C0"/>
<stop offset="1" stop-color="#22C3A6"/>
</linearGradient>
<linearGradient id="paint3_linear_879_1352" x1="1136" y1="690" x2="1136" y2="730" gradientUnits="userSpaceOnUse">
<stop stop-color="#5CD6C0"/>
<stop offset="1" stop-color="#22C3A6"/>
</linearGradient>
<linearGradient id="paint4_linear_879_1352" x1="1174.5" y1="690" x2="1174.5" y2="730" gradientUnits="userSpaceOnUse">
<stop stop-color="#5CD6C0"/>
<stop offset="1" stop-color="#22C3A6"/>
</linearGradient>
<linearGradient id="paint5_linear_879_1352" x1="1174.5" y1="750" x2="1174.5" y2="790" gradientUnits="userSpaceOnUse">
<stop stop-color="#5CD6C0"/>
<stop offset="1" stop-color="#22C3A6"/>
</linearGradient>
<linearGradient id="paint6_linear_879_1352" x1="1251.5" y1="750" x2="1251.5" y2="790" gradientUnits="userSpaceOnUse">
<stop stop-color="#5CD6C0"/>
<stop offset="1" stop-color="#22C3A6"/>
</linearGradient>
<linearGradient id="paint7_linear_879_1352" x1="1290" y1="750" x2="1290" y2="790" gradientUnits="userSpaceOnUse">
<stop stop-color="#5CD6C0"/>
<stop offset="1" stop-color="#22C3A6"/>
</linearGradient>
<linearGradient id="paint8_linear_879_1352" x1="1136" y1="810" x2="1136" y2="850" gradientUnits="userSpaceOnUse">
<stop stop-color="#5CD6C0"/>
<stop offset="1" stop-color="#22C3A6"/>
</linearGradient>
<linearGradient id="paint9_linear_879_1352" x1="1174.5" y1="810" x2="1174.5" y2="850" gradientUnits="userSpaceOnUse">
<stop stop-color="#5CD6C0"/>
<stop offset="1" stop-color="#22C3A6"/>
</linearGradient>
<linearGradient id="paint10_linear_879_1352" x1="1251.5" y1="810" x2="1251.5" y2="850" gradientUnits="userSpaceOnUse">
<stop stop-color="#5CD6C0"/>
<stop offset="1" stop-color="#22C3A6"/>
</linearGradient>
<linearGradient id="paint11_linear_879_1352" x1="1290" y1="810" x2="1290" y2="850" gradientUnits="userSpaceOnUse">
<stop stop-color="#5CD6C0"/>
<stop offset="1" stop-color="#22C3A6"/>
</linearGradient>
<linearGradient id="paint12_linear_879_1352" x1="1136" y1="870" x2="1136" y2="910" gradientUnits="userSpaceOnUse">
<stop stop-color="#5CD6C0"/>
<stop offset="1" stop-color="#22C3A6"/>
</linearGradient>
<linearGradient id="paint13_linear_879_1352" x1="1174.5" y1="870" x2="1174.5" y2="910" gradientUnits="userSpaceOnUse">
<stop stop-color="#5CD6C0"/>
<stop offset="1" stop-color="#22C3A6"/>
</linearGradient>
<linearGradient id="paint14_linear_879_1352" x1="1251.5" y1="870" x2="1251.5" y2="910" gradientUnits="userSpaceOnUse">
<stop stop-color="#5CD6C0"/>
<stop offset="1" stop-color="#22C3A6"/>
</linearGradient>
<linearGradient id="paint15_linear_879_1352" x1="1290" y1="870" x2="1290" y2="910" gradientUnits="userSpaceOnUse">
<stop stop-color="#5CD6C0"/>
<stop offset="1" stop-color="#22C3A6"/>
</linearGradient>
<linearGradient id="paint16_linear_879_1352" x1="1128" y1="976" x2="1128" y2="1008" gradientUnits="userSpaceOnUse">
<stop stop-color="#605DEC"/>
<stop offset="1" stop-color="#2A26D9"/>
</linearGradient>
<linearGradient id="paint17_linear_879_1352" x1="1155" y1="976" x2="1155" y2="1008" gradientUnits="userSpaceOnUse">
<stop stop-color="#605DEC"/>
<stop offset="1" stop-color="#2A26D9"/>
</linearGradient>
<linearGradient id="paint18_linear_879_1352" x1="1182" y1="976" x2="1182" y2="1008" gradientUnits="userSpaceOnUse">
<stop stop-color="#605DEC"/>
<stop offset="1" stop-color="#2A26D9"/>
</linearGradient>
<linearGradient id="paint19_linear_879_1352" x1="1271" y1="976" x2="1271" y2="1008" gradientUnits="userSpaceOnUse">
<stop stop-color="#605DEC"/>
<stop offset="1" stop-color="#2A26D9"/>
</linearGradient>
<linearGradient id="paint20_linear_879_1352" x1="1128" y1="1020" x2="1128" y2="1052" gradientUnits="userSpaceOnUse">
<stop stop-color="#605DEC"/>
<stop offset="1" stop-color="#2A26D9"/>
</linearGradient>
<linearGradient id="paint21_linear_879_1352" x1="1155" y1="1020" x2="1155" y2="1052" gradientUnits="userSpaceOnUse">
<stop stop-color="#605DEC"/>
<stop offset="1" stop-color="#2A26D9"/>
</linearGradient>
<linearGradient id="paint22_linear_879_1352" x1="1244" y1="1020" x2="1244" y2="1052" gradientUnits="userSpaceOnUse">
<stop stop-color="#605DEC"/>
<stop offset="1" stop-color="#2A26D9"/>
</linearGradient>
<linearGradient id="paint23_linear_879_1352" x1="1271" y1="1020" x2="1271" y2="1052" gradientUnits="userSpaceOnUse">
<stop stop-color="#605DEC"/>
<stop offset="1" stop-color="#2A26D9"/>
</linearGradient>
<linearGradient id="paint24_linear_879_1352" x1="1128" y1="1064" x2="1128" y2="1096" gradientUnits="userSpaceOnUse">
<stop stop-color="#605DEC"/>
<stop offset="1" stop-color="#2A26D9"/>
</linearGradient>
<linearGradient id="paint25_linear_879_1352" x1="1271" y1="1064" x2="1271" y2="1096" gradientUnits="userSpaceOnUse">
<stop stop-color="#605DEC"/>
<stop offset="1" stop-color="#2A26D9"/>
</linearGradient>
<linearGradient id="paint26_linear_879_1352" x1="1182" y1="1108" x2="1182" y2="1140" gradientUnits="userSpaceOnUse">
<stop stop-color="#605DEC"/>
<stop offset="1" stop-color="#2A26D9"/>
</linearGradient>
<linearGradient id="paint27_linear_879_1352" x1="1271" y1="1108" x2="1271" y2="1140" gradientUnits="userSpaceOnUse">
<stop stop-color="#605DEC"/>
<stop offset="1" stop-color="#2A26D9"/>
</linearGradient>
<linearGradient id="paint28_linear_879_1352" x1="1298" y1="1108" x2="1298" y2="1140" gradientUnits="userSpaceOnUse">
<stop stop-color="#605DEC"/>
<stop offset="1" stop-color="#2A26D9"/>
</linearGradient>
<linearGradient id="paint29_linear_879_1352" x1="1128" y1="1152" x2="1128" y2="1184" gradientUnits="userSpaceOnUse">
<stop stop-color="#605DEC"/>
<stop offset="1" stop-color="#2A26D9"/>
</linearGradient>
<linearGradient id="paint30_linear_879_1352" x1="1182" y1="1152" x2="1182" y2="1184" gradientUnits="userSpaceOnUse">
<stop stop-color="#605DEC"/>
<stop offset="1" stop-color="#2A26D9"/>
</linearGradient>
<linearGradient id="paint31_linear_879_1352" x1="1244" y1="1152" x2="1244" y2="1184" gradientUnits="userSpaceOnUse">
<stop stop-color="#605DEC"/>
<stop offset="1" stop-color="#2A26D9"/>
</linearGradient>
<linearGradient id="paint32_linear_879_1352" x1="1271" y1="1152" x2="1271" y2="1184" gradientUnits="userSpaceOnUse">
<stop stop-color="#605DEC"/>
<stop offset="1" stop-color="#2A26D9"/>
</linearGradient>
<linearGradient id="paint33_linear_879_1352" x1="1155" y1="1196" x2="1155" y2="1228" gradientUnits="userSpaceOnUse">
<stop stop-color="#605DEC"/>
<stop offset="1" stop-color="#2A26D9"/>
</linearGradient>
<linearGradient id="paint34_linear_879_1352" x1="1182" y1="1196" x2="1182" y2="1228" gradientUnits="userSpaceOnUse">
<stop stop-color="#605DEC"/>
<stop offset="1" stop-color="#2A26D9"/>
</linearGradient>
<linearGradient id="paint35_linear_879_1352" x1="1244" y1="1196" x2="1244" y2="1228" gradientUnits="userSpaceOnUse">
<stop stop-color="#605DEC"/>
<stop offset="1" stop-color="#2A26D9"/>
</linearGradient>
<linearGradient id="paint36_linear_879_1352" x1="1271" y1="1196" x2="1271" y2="1228" gradientUnits="userSpaceOnUse">
<stop stop-color="#605DEC"/>
<stop offset="1" stop-color="#2A26D9"/>
</linearGradient>
<linearGradient id="paint37_linear_879_1352" x1="1128" y1="1240" x2="1128" y2="1272" gradientUnits="userSpaceOnUse">
<stop stop-color="#605DEC"/>
<stop offset="1" stop-color="#2A26D9"/>
</linearGradient>
<linearGradient id="paint38_linear_879_1352" x1="1155" y1="1240" x2="1155" y2="1272" gradientUnits="userSpaceOnUse">
<stop stop-color="#605DEC"/>
<stop offset="1" stop-color="#2A26D9"/>
</linearGradient>
<linearGradient id="paint39_linear_879_1352" x1="1244" y1="1240" x2="1244" y2="1272" gradientUnits="userSpaceOnUse">
<stop stop-color="#605DEC"/>
<stop offset="1" stop-color="#2A26D9"/>
</linearGradient>
<linearGradient id="paint40_linear_879_1352" x1="1271" y1="1240" x2="1271" y2="1272" gradientUnits="userSpaceOnUse">
<stop stop-color="#605DEC"/>
<stop offset="1" stop-color="#2A26D9"/>
</linearGradient>
<linearGradient id="paint41_linear_879_1352" x1="1298" y1="1240" x2="1298" y2="1272" gradientUnits="userSpaceOnUse">
<stop stop-color="#605DEC"/>
<stop offset="1" stop-color="#2A26D9"/>
</linearGradient>
<linearGradient id="paint42_linear_879_1352" x1="1155" y1="1284" x2="1155" y2="1316" gradientUnits="userSpaceOnUse">
<stop stop-color="#605DEC"/>
<stop offset="1" stop-color="#2A26D9"/>
</linearGradient>
<linearGradient id="paint43_linear_879_1352" x1="1182" y1="1284" x2="1182" y2="1316" gradientUnits="userSpaceOnUse">
<stop stop-color="#605DEC"/>
<stop offset="1" stop-color="#2A26D9"/>
</linearGradient>
<linearGradient id="paint44_linear_879_1352" x1="1271" y1="1284" x2="1271" y2="1316" gradientUnits="userSpaceOnUse">
<stop stop-color="#605DEC"/>
<stop offset="1" stop-color="#2A26D9"/>
</linearGradient>
<linearGradient id="paint45_linear_879_1352" x1="1182" y1="1350" x2="1182" y2="1382" gradientUnits="userSpaceOnUse">
<stop stop-color="#605DEC"/>
<stop offset="1" stop-color="#2A26D9"/>
</linearGradient>
<linearGradient id="paint46_linear_879_1352" x1="1271" y1="1350" x2="1271" y2="1382" gradientUnits="userSpaceOnUse">
<stop stop-color="#605DEC"/>
<stop offset="1" stop-color="#2A26D9"/>
</linearGradient>
<linearGradient id="paint47_linear_879_1352" x1="1128" y1="1394" x2="1128" y2="1426" gradientUnits="userSpaceOnUse">
<stop stop-color="#605DEC"/>
<stop offset="1" stop-color="#2A26D9"/>
</linearGradient>
<linearGradient id="paint48_linear_879_1352" x1="1182" y1="1394" x2="1182" y2="1426" gradientUnits="userSpaceOnUse">
<stop stop-color="#605DEC"/>
<stop offset="1" stop-color="#2A26D9"/>
</linearGradient>
<linearGradient id="paint49_linear_879_1352" x1="1244" y1="1394" x2="1244" y2="1426" gradientUnits="userSpaceOnUse">
<stop stop-color="#605DEC"/>
<stop offset="1" stop-color="#2A26D9"/>
</linearGradient>
<linearGradient id="paint50_linear_879_1352" x1="1271" y1="1394" x2="1271" y2="1426" gradientUnits="userSpaceOnUse">
<stop stop-color="#605DEC"/>
<stop offset="1" stop-color="#2A26D9"/>
</linearGradient>
<linearGradient id="paint51_linear_879_1352" x1="1298" y1="1394" x2="1298" y2="1426" gradientUnits="userSpaceOnUse">
<stop stop-color="#605DEC"/>
<stop offset="1" stop-color="#2A26D9"/>
</linearGradient>
<linearGradient id="paint52_linear_879_1352" x1="1155" y1="1438" x2="1155" y2="1470" gradientUnits="userSpaceOnUse">
<stop stop-color="#605DEC"/>
<stop offset="1" stop-color="#2A26D9"/>
</linearGradient>
<linearGradient id="paint53_linear_879_1352" x1="1182" y1="1438" x2="1182" y2="1470" gradientUnits="userSpaceOnUse">
<stop stop-color="#605DEC"/>
<stop offset="1" stop-color="#2A26D9"/>
</linearGradient>
<linearGradient id="paint54_linear_879_1352" x1="1271" y1="1438" x2="1271" y2="1470" gradientUnits="userSpaceOnUse">
<stop stop-color="#605DEC"/>
<stop offset="1" stop-color="#2A26D9"/>
</linearGradient>
<linearGradient id="paint55_linear_879_1352" x1="1128" y1="1482" x2="1128" y2="1514" gradientUnits="userSpaceOnUse">
<stop stop-color="#605DEC"/>
<stop offset="1" stop-color="#2A26D9"/>
</linearGradient>
<linearGradient id="paint56_linear_879_1352" x1="1155" y1="1482" x2="1155" y2="1514" gradientUnits="userSpaceOnUse">
<stop stop-color="#605DEC"/>
<stop offset="1" stop-color="#2A26D9"/>
</linearGradient>
<linearGradient id="paint57_linear_879_1352" x1="1244" y1="1482" x2="1244" y2="1514" gradientUnits="userSpaceOnUse">
<stop stop-color="#605DEC"/>
<stop offset="1" stop-color="#2A26D9"/>
</linearGradient>
<linearGradient id="paint58_linear_879_1352" x1="1271" y1="1482" x2="1271" y2="1514" gradientUnits="userSpaceOnUse">
<stop stop-color="#605DEC"/>
<stop offset="1" stop-color="#2A26D9"/>
</linearGradient>
<linearGradient id="paint59_linear_879_1352" x1="1155" y1="1526" x2="1155" y2="1558" gradientUnits="userSpaceOnUse">
<stop stop-color="#605DEC"/>
<stop offset="1" stop-color="#2A26D9"/>
</linearGradient>
<linearGradient id="paint60_linear_879_1352" x1="1244" y1="1526" x2="1244" y2="1558" gradientUnits="userSpaceOnUse">
<stop stop-color="#605DEC"/>
<stop offset="1" stop-color="#2A26D9"/>
</linearGradient>
<linearGradient id="paint61_linear_879_1352" x1="1271" y1="1526" x2="1271" y2="1558" gradientUnits="userSpaceOnUse">
<stop stop-color="#605DEC"/>
<stop offset="1" stop-color="#2A26D9"/>
</linearGradient>
<linearGradient id="paint62_linear_879_1352" x1="1298" y1="1526" x2="1298" y2="1558" gradientUnits="userSpaceOnUse">
<stop stop-color="#605DEC"/>
<stop offset="1" stop-color="#2A26D9"/>
</linearGradient>
<linearGradient id="paint63_linear_879_1352" x1="1271" y1="1592" x2="1271" y2="1624" gradientUnits="userSpaceOnUse">
<stop stop-color="#605DEC"/>
<stop offset="1" stop-color="#2A26D9"/>
</linearGradient>
<linearGradient id="paint64_linear_879_1352" x1="1155" y1="1636" x2="1155" y2="1668" gradientUnits="userSpaceOnUse">
<stop stop-color="#605DEC"/>
<stop offset="1" stop-color="#2A26D9"/>
</linearGradient>
<linearGradient id="paint65_linear_879_1352" x1="1182" y1="1636" x2="1182" y2="1668" gradientUnits="userSpaceOnUse">
<stop stop-color="#605DEC"/>
<stop offset="1" stop-color="#2A26D9"/>
</linearGradient>
<linearGradient id="paint66_linear_879_1352" x1="1271" y1="1636" x2="1271" y2="1668" gradientUnits="userSpaceOnUse">
<stop stop-color="#605DEC"/>
<stop offset="1" stop-color="#2A26D9"/>
</linearGradient>
<linearGradient id="paint67_linear_879_1352" x1="1155" y1="1680" x2="1155" y2="1712" gradientUnits="userSpaceOnUse">
<stop stop-color="#605DEC"/>
<stop offset="1" stop-color="#2A26D9"/>
</linearGradient>
<linearGradient id="paint68_linear_879_1352" x1="1244" y1="1680" x2="1244" y2="1712" gradientUnits="userSpaceOnUse">
<stop stop-color="#605DEC"/>
<stop offset="1" stop-color="#2A26D9"/>
</linearGradient>
<linearGradient id="paint69_linear_879_1352" x1="1271" y1="1680" x2="1271" y2="1712" gradientUnits="userSpaceOnUse">
<stop stop-color="#605DEC"/>
<stop offset="1" stop-color="#2A26D9"/>
</linearGradient>
<linearGradient id="paint70_linear_879_1352" x1="1298" y1="1680" x2="1298" y2="1712" gradientUnits="userSpaceOnUse">
<stop stop-color="#605DEC"/>
<stop offset="1" stop-color="#2A26D9"/>
</linearGradient>
<linearGradient id="paint71_linear_879_1352" x1="1128" y1="1724" x2="1128" y2="1756" gradientUnits="userSpaceOnUse">
<stop stop-color="#605DEC"/>
<stop offset="1" stop-color="#2A26D9"/>
</linearGradient>
<linearGradient id="paint72_linear_879_1352" x1="1155" y1="1724" x2="1155" y2="1756" gradientUnits="userSpaceOnUse">
<stop stop-color="#605DEC"/>
<stop offset="1" stop-color="#2A26D9"/>
</linearGradient>
<linearGradient id="paint73_linear_879_1352" x1="1182" y1="1724" x2="1182" y2="1756" gradientUnits="userSpaceOnUse">
<stop stop-color="#605DEC"/>
<stop offset="1" stop-color="#2A26D9"/>
</linearGradient>
<linearGradient id="paint74_linear_879_1352" x1="1271" y1="1724" x2="1271" y2="1756" gradientUnits="userSpaceOnUse">
<stop stop-color="#605DEC"/>
<stop offset="1" stop-color="#2A26D9"/>
</linearGradient>
<linearGradient id="paint75_linear_879_1352" x1="1182" y1="1768" x2="1182" y2="1800" gradientUnits="userSpaceOnUse">
<stop stop-color="#605DEC"/>
<stop offset="1" stop-color="#2A26D9"/>
</linearGradient>
<linearGradient id="paint76_linear_879_1352" x1="1271" y1="1768" x2="1271" y2="1800" gradientUnits="userSpaceOnUse">
<stop stop-color="#605DEC"/>
<stop offset="1" stop-color="#2A26D9"/>
</linearGradient>
<linearGradient id="paint77_linear_879_1352" x1="1128" y1="1812" x2="1128" y2="1844" gradientUnits="userSpaceOnUse">
<stop stop-color="#605DEC"/>
<stop offset="1" stop-color="#2A26D9"/>
</linearGradient>
<linearGradient id="paint78_linear_879_1352" x1="1155" y1="1812" x2="1155" y2="1844" gradientUnits="userSpaceOnUse">
<stop stop-color="#605DEC"/>
<stop offset="1" stop-color="#2A26D9"/>
</linearGradient>
<linearGradient id="paint79_linear_879_1352" x1="1182" y1="1812" x2="1182" y2="1844" gradientUnits="userSpaceOnUse">
<stop stop-color="#605DEC"/>
<stop offset="1" stop-color="#2A26D9"/>
</linearGradient>
<linearGradient id="paint80_linear_879_1352" x1="1244" y1="1812" x2="1244" y2="1844" gradientUnits="userSpaceOnUse">
<stop stop-color="#605DEC"/>
<stop offset="1" stop-color="#2A26D9"/>
</linearGradient>
<linearGradient id="paint81_linear_879_1352" x1="1271" y1="1812" x2="1271" y2="1844" gradientUnits="userSpaceOnUse">
<stop stop-color="#605DEC"/>
<stop offset="1" stop-color="#2A26D9"/>
</linearGradient>
<linearGradient id="paint82_linear_879_1352" x1="1128" y1="1856" x2="1128" y2="1888" gradientUnits="userSpaceOnUse">
<stop stop-color="#605DEC"/>
<stop offset="1" stop-color="#2A26D9"/>
</linearGradient>
<linearGradient id="paint83_linear_879_1352" x1="1271" y1="1856" x2="1271" y2="1888" gradientUnits="userSpaceOnUse">
<stop stop-color="#605DEC"/>
<stop offset="1" stop-color="#2A26D9"/>
</linearGradient>
<linearGradient id="paint84_linear_879_1352" x1="1128" y1="1900" x2="1128" y2="1932" gradientUnits="userSpaceOnUse">
<stop stop-color="#605DEC"/>
<stop offset="1" stop-color="#2A26D9"/>
</linearGradient>
<linearGradient id="paint85_linear_879_1352" x1="1155" y1="1900" x2="1155" y2="1932" gradientUnits="userSpaceOnUse">
<stop stop-color="#605DEC"/>
<stop offset="1" stop-color="#2A26D9"/>
</linearGradient>
<linearGradient id="paint86_linear_879_1352" x1="1182" y1="1900" x2="1182" y2="1932" gradientUnits="userSpaceOnUse">
<stop stop-color="#605DEC"/>
<stop offset="1" stop-color="#2A26D9"/>
</linearGradient>
<linearGradient id="paint87_linear_879_1352" x1="1244" y1="1900" x2="1244" y2="1932" gradientUnits="userSpaceOnUse">
<stop stop-color="#605DEC"/>
<stop offset="1" stop-color="#2A26D9"/>
</linearGradient>
<linearGradient id="paint88_linear_879_1352" x1="1271" y1="1900" x2="1271" y2="1932" gradientUnits="userSpaceOnUse">
<stop stop-color="#605DEC"/>
<stop offset="1" stop-color="#2A26D9"/>
</linearGradient>
<linearGradient id="paint89_linear_879_1352" x1="1298" y1="1900" x2="1298" y2="1932" gradientUnits="userSpaceOnUse">
<stop stop-color="#605DEC"/>
<stop offset="1" stop-color="#2A26D9"/>
</linearGradient>
<linearGradient id="paint90_linear_879_1352" x1="1155" y1="1944" x2="1155" y2="1976" gradientUnits="userSpaceOnUse">
<stop stop-color="#605DEC"/>
<stop offset="1" stop-color="#2A26D9"/>
</linearGradient>
<linearGradient id="paint91_linear_879_1352" x1="1182" y1="1944" x2="1182" y2="1976" gradientUnits="userSpaceOnUse">
<stop stop-color="#605DEC"/>
<stop offset="1" stop-color="#2A26D9"/>
</linearGradient>
<linearGradient id="paint92_linear_879_1352" x1="1271" y1="1944" x2="1271" y2="1976" gradientUnits="userSpaceOnUse">
<stop stop-color="#605DEC"/>
<stop offset="1" stop-color="#2A26D9"/>
</linearGradient>
<linearGradient id="paint93_linear_879_1352" x1="1128" y1="1988" x2="1128" y2="2020" gradientUnits="userSpaceOnUse">
<stop stop-color="#605DEC"/>
<stop offset="1" stop-color="#2A26D9"/>
</linearGradient>
<linearGradient id="paint94_linear_879_1352" x1="1155" y1="1988" x2="1155" y2="2020" gradientUnits="userSpaceOnUse">
<stop stop-color="#605DEC"/>
<stop offset="1" stop-color="#2A26D9"/>
</linearGradient>
<linearGradient id="paint95_linear_879_1352" x1="1182" y1="1988" x2="1182" y2="2020" gradientUnits="userSpaceOnUse">
<stop stop-color="#605DEC"/>
<stop offset="1" stop-color="#2A26D9"/>
</linearGradient>
<linearGradient id="paint96_linear_879_1352" x1="1244" y1="1988" x2="1244" y2="2020" gradientUnits="userSpaceOnUse">
<stop stop-color="#605DEC"/>
<stop offset="1" stop-color="#2A26D9"/>
</linearGradient>
<linearGradient id="paint97_linear_879_1352" x1="1271" y1="1988" x2="1271" y2="2020" gradientUnits="userSpaceOnUse">
<stop stop-color="#605DEC"/>
<stop offset="1" stop-color="#2A26D9"/>
</linearGradient>
<linearGradient id="paint98_linear_879_1352" x1="1298" y1="1988" x2="1298" y2="2020" gradientUnits="userSpaceOnUse">
<stop stop-color="#605DEC"/>
<stop offset="1" stop-color="#2A26D9"/>
</linearGradient>
<linearGradient id="paint99_linear_879_1352" x1="1155" y1="2054" x2="1155" y2="2086" gradientUnits="userSpaceOnUse">
<stop stop-color="#605DEC"/>
<stop offset="1" stop-color="#2A26D9"/>
</linearGradient>
<linearGradient id="paint100_linear_879_1352" x1="1271" y1="2054" x2="1271" y2="2086" gradientUnits="userSpaceOnUse">
<stop stop-color="#605DEC"/>
<stop offset="1" stop-color="#2A26D9"/>
</linearGradient>
<linearGradient id="paint101_linear_879_1352" x1="1244" y1="2098" x2="1244" y2="2130" gradientUnits="userSpaceOnUse">
<stop stop-color="#605DEC"/>
<stop offset="1" stop-color="#2A26D9"/>
</linearGradient>
<linearGradient id="paint102_linear_879_1352" x1="1271" y1="2098" x2="1271" y2="2130" gradientUnits="userSpaceOnUse">
<stop stop-color="#605DEC"/>
<stop offset="1" stop-color="#2A26D9"/>
</linearGradient>
<linearGradient id="paint103_linear_879_1352" x1="1298" y1="2098" x2="1298" y2="2130" gradientUnits="userSpaceOnUse">
<stop stop-color="#605DEC"/>
<stop offset="1" stop-color="#2A26D9"/>
</linearGradient>
<linearGradient id="paint104_linear_879_1352" x1="1128" y1="2142" x2="1128" y2="2174" gradientUnits="userSpaceOnUse">
<stop stop-color="#605DEC"/>
<stop offset="1" stop-color="#2A26D9"/>
</linearGradient>
<linearGradient id="paint105_linear_879_1352" x1="1155" y1="2142" x2="1155" y2="2174" gradientUnits="userSpaceOnUse">
<stop stop-color="#605DEC"/>
<stop offset="1" stop-color="#2A26D9"/>
</linearGradient>
<linearGradient id="paint106_linear_879_1352" x1="1182" y1="2142" x2="1182" y2="2174" gradientUnits="userSpaceOnUse">
<stop stop-color="#605DEC"/>
<stop offset="1" stop-color="#2A26D9"/>
</linearGradient>
<linearGradient id="paint107_linear_879_1352" x1="1271" y1="2142" x2="1271" y2="2174" gradientUnits="userSpaceOnUse">
<stop stop-color="#605DEC"/>
<stop offset="1" stop-color="#2A26D9"/>
</linearGradient>
<linearGradient id="paint108_linear_879_1352" x1="1182" y1="2186" x2="1182" y2="2218" gradientUnits="userSpaceOnUse">
<stop stop-color="#605DEC"/>
<stop offset="1" stop-color="#2A26D9"/>
</linearGradient>
<linearGradient id="paint109_linear_879_1352" x1="1244" y1="2186" x2="1244" y2="2218" gradientUnits="userSpaceOnUse">
<stop stop-color="#605DEC"/>
<stop offset="1" stop-color="#2A26D9"/>
</linearGradient>
<linearGradient id="paint110_linear_879_1352" x1="1271" y1="2186" x2="1271" y2="2218" gradientUnits="userSpaceOnUse">
<stop stop-color="#605DEC"/>
<stop offset="1" stop-color="#2A26D9"/>
</linearGradient>
<linearGradient id="paint111_linear_879_1352" x1="1298" y1="2186" x2="1298" y2="2218" gradientUnits="userSpaceOnUse">
<stop stop-color="#605DEC"/>
<stop offset="1" stop-color="#2A26D9"/>
</linearGradient>
<linearGradient id="paint112_linear_879_1352" x1="1128" y1="2230" x2="1128" y2="2262" gradientUnits="userSpaceOnUse">
<stop stop-color="#605DEC"/>
<stop offset="1" stop-color="#2A26D9"/>
</linearGradient>
<linearGradient id="paint113_linear_879_1352" x1="1155" y1="2230" x2="1155" y2="2262" gradientUnits="userSpaceOnUse">
<stop stop-color="#605DEC"/>
<stop offset="1" stop-color="#2A26D9"/>
</linearGradient>
<linearGradient id="paint114_linear_879_1352" x1="1182" y1="2230" x2="1182" y2="2262" gradientUnits="userSpaceOnUse">
<stop stop-color="#605DEC"/>
<stop offset="1" stop-color="#2A26D9"/>
</linearGradient>
<linearGradient id="paint115_linear_879_1352" x1="1244" y1="2230" x2="1244" y2="2262" gradientUnits="userSpaceOnUse">
<stop stop-color="#605DEC"/>
<stop offset="1" stop-color="#2A26D9"/>
</linearGradient>
<linearGradient id="paint116_linear_879_1352" x1="1271" y1="2230" x2="1271" y2="2262" gradientUnits="userSpaceOnUse">
<stop stop-color="#605DEC"/>
<stop offset="1" stop-color="#2A26D9"/>
</linearGradient>
</defs>
</svg>
