<svg width="400" height="192" viewBox="0 0 400 192" fill="none" xmlns="http://www.w3.org/2000/svg">
<rect x="0.5" y="0.5" width="399" height="191" rx="11.5" fill="white"/>
<rect x="0.5" y="0.5" width="399" height="191" rx="11.5" stroke="#E9E8FC"/>
<g clip-path="url(#clip0_918_218)">
<rect width="32" height="16" transform="translate(16 24)" fill="white"/>
<path d="M20.7595 36.15V34.81L20.9495 34.98C20.4695 34.9733 20.0162 34.9033 19.5895 34.77C19.1629 34.6367 18.7895 34.4333 18.4695 34.16L18.7795 33.47C18.9929 33.6433 19.2095 33.7867 19.4295 33.9C19.6562 34.0133 19.8995 34.1 20.1595 34.16C20.4195 34.2133 20.7095 34.24 21.0295 34.24C21.5895 34.24 22.0062 34.1333 22.2795 33.92C22.5595 33.7 22.6995 33.42 22.6995 33.08C22.6995 32.78 22.5962 32.5467 22.3895 32.38C22.1895 32.2067 21.8629 32.0767 21.4095 31.99L20.4095 31.8C19.8162 31.6867 19.3695 31.4833 19.0695 31.19C18.7695 30.8967 18.6195 30.4967 18.6195 29.99C18.6195 29.61 18.7129 29.2733 18.8995 28.98C19.0929 28.68 19.3595 28.4433 19.6995 28.27C20.0395 28.0967 20.4362 28 20.8895 27.98L20.7595 28.12V26.8H21.4695V28.12L21.3295 27.98C21.6962 27.9933 22.0595 28.07 22.4195 28.21C22.7862 28.35 23.0995 28.5533 23.3595 28.82L23.0595 29.48C22.7929 29.22 22.4962 29.0267 22.1695 28.9C21.8495 28.7733 21.4862 28.71 21.0795 28.71C20.5862 28.71 20.1895 28.8267 19.8895 29.06C19.5962 29.2933 19.4495 29.6 19.4495 29.98C19.4495 30.2867 19.5429 30.5267 19.7295 30.7C19.9162 30.8733 20.2162 31 20.6295 31.08L21.6395 31.27C22.2862 31.39 22.7629 31.5967 23.0695 31.89C23.3829 32.1833 23.5395 32.57 23.5395 33.05C23.5395 33.4233 23.4429 33.75 23.2495 34.03C23.0629 34.3033 22.8029 34.52 22.4695 34.68C22.1362 34.84 21.7495 34.9367 21.3095 34.97L21.4695 34.8V36.15H20.7595ZM25.0956 35V34.27H26.8656V28.66L27.3156 28.69L25.4456 29.89L25.0656 29.24L27.0956 27.95H27.7156V34.27H29.3556V35H25.0956ZM33.0117 35.09C32.4717 35.09 32.0151 34.9533 31.6417 34.68C31.2751 34.4 30.9984 33.9933 30.8117 33.46C30.6251 32.92 30.5317 32.2567 30.5317 31.47C30.5317 30.6833 30.6251 30.0233 30.8117 29.49C30.9984 28.95 31.2751 28.5433 31.6417 28.27C32.0151 27.9967 32.4717 27.86 33.0117 27.86C33.5584 27.86 34.0151 27.9967 34.3817 28.27C34.7484 28.5433 35.0251 28.9467 35.2117 29.48C35.3984 30.0133 35.4917 30.6733 35.4917 31.46C35.4917 32.2467 35.3984 32.91 35.2117 33.45C35.0251 33.99 34.7451 34.4 34.3717 34.68C34.0051 34.9533 33.5517 35.09 33.0117 35.09ZM33.0117 34.35C33.5651 34.35 33.9751 34.1167 34.2417 33.65C34.5084 33.1767 34.6417 32.4467 34.6417 31.46C34.6417 30.4733 34.5084 29.75 34.2417 29.29C33.9817 28.83 33.5717 28.6 33.0117 28.6C32.4584 28.6 32.0484 28.8333 31.7817 29.3C31.5151 29.76 31.3817 30.4833 31.3817 31.47C31.3817 32.45 31.5151 33.1767 31.7817 33.65C32.0484 34.1167 32.4584 34.35 33.0117 34.35ZM39.0078 35.09C38.4678 35.09 38.0111 34.9533 37.6378 34.68C37.2711 34.4 36.9945 33.9933 36.8078 33.46C36.6211 32.92 36.5278 32.2567 36.5278 31.47C36.5278 30.6833 36.6211 30.0233 36.8078 29.49C36.9945 28.95 37.2711 28.5433 37.6378 28.27C38.0111 27.9967 38.4678 27.86 39.0078 27.86C39.5545 27.86 40.0111 27.9967 40.3778 28.27C40.7445 28.5433 41.0211 28.9467 41.2078 29.48C41.3945 30.0133 41.4878 30.6733 41.4878 31.46C41.4878 32.2467 41.3945 32.91 41.2078 33.45C41.0211 33.99 40.7411 34.4 40.3678 34.68C40.0011 34.9533 39.5478 35.09 39.0078 35.09ZM39.0078 34.35C39.5611 34.35 39.9711 34.1167 40.2378 33.65C40.5045 33.1767 40.6378 32.4467 40.6378 31.46C40.6378 30.4733 40.5045 29.75 40.2378 29.29C39.9778 28.83 39.5678 28.6 39.0078 28.6C38.4545 28.6 38.0445 28.8333 37.7778 29.3C37.5111 29.76 37.3778 30.4833 37.3778 31.47C37.3778 32.45 37.5111 33.1767 37.7778 33.65C38.0445 34.1167 38.4545 34.35 39.0078 34.35ZM45.0039 35.09C44.4639 35.09 44.0072 34.9533 43.6339 34.68C43.2672 34.4 42.9906 33.9933 42.8039 33.46C42.6172 32.92 42.5239 32.2567 42.5239 31.47C42.5239 30.6833 42.6172 30.0233 42.8039 29.49C42.9906 28.95 43.2672 28.5433 43.6339 28.27C44.0072 27.9967 44.4639 27.86 45.0039 27.86C45.5506 27.86 46.0072 27.9967 46.3739 28.27C46.7406 28.5433 47.0172 28.9467 47.2039 29.48C47.3906 30.0133 47.4839 30.6733 47.4839 31.46C47.4839 32.2467 47.3906 32.91 47.2039 33.45C47.0172 33.99 46.7372 34.4 46.3639 34.68C45.9972 34.9533 45.5439 35.09 45.0039 35.09ZM45.0039 34.35C45.5572 34.35 45.9672 34.1167 46.2339 33.65C46.5006 33.1767 46.6339 32.4467 46.6339 31.46C46.6339 30.4733 46.5006 29.75 46.2339 29.29C45.9739 28.83 45.5639 28.6 45.0039 28.6C44.4506 28.6 44.0406 28.8333 43.7739 29.3C43.5072 29.76 43.3739 30.4833 43.3739 31.47C43.3739 32.45 43.5072 33.1767 43.7739 33.65C44.0406 34.1167 44.4506 34.35 45.0039 34.35Z" fill="#7C8DB0"/>
<rect x="60" y="31.5" width="324" height="1" fill="#E9E8FC"/>
</g>
<g clip-path="url(#clip1_918_218)">
<rect width="32" height="16" transform="translate(16 67)" fill="white"/>
<path d="M26.7556 79.15V77.81L26.9456 77.98C26.4656 77.9733 26.0123 77.9033 25.5856 77.77C25.159 77.6367 24.7856 77.4333 24.4656 77.16L24.7756 76.47C24.989 76.6433 25.2056 76.7867 25.4256 76.9C25.6523 77.0133 25.8956 77.1 26.1556 77.16C26.4156 77.2133 26.7056 77.24 27.0256 77.24C27.5856 77.24 28.0023 77.1333 28.2756 76.92C28.5556 76.7 28.6956 76.42 28.6956 76.08C28.6956 75.78 28.5923 75.5467 28.3856 75.38C28.1856 75.2067 27.859 75.0767 27.4056 74.99L26.4056 74.8C25.8123 74.6867 25.3656 74.4833 25.0656 74.19C24.7656 73.8967 24.6156 73.4967 24.6156 72.99C24.6156 72.61 24.709 72.2733 24.8956 71.98C25.089 71.68 25.3556 71.4433 25.6956 71.27C26.0356 71.0967 26.4323 71 26.8856 70.98L26.7556 71.12V69.8H27.4656V71.12L27.3256 70.98C27.6923 70.9933 28.0556 71.07 28.4156 71.21C28.7823 71.35 29.0956 71.5533 29.3556 71.82L29.0556 72.48C28.789 72.22 28.4923 72.0267 28.1656 71.9C27.8456 71.7733 27.4823 71.71 27.0756 71.71C26.5823 71.71 26.1856 71.8267 25.8856 72.06C25.5923 72.2933 25.4456 72.6 25.4456 72.98C25.4456 73.2867 25.539 73.5267 25.7256 73.7C25.9123 73.8733 26.2123 74 26.6256 74.08L27.6356 74.27C28.2823 74.39 28.759 74.5967 29.0656 74.89C29.379 75.1833 29.5356 75.57 29.5356 76.05C29.5356 76.4233 29.439 76.75 29.2456 77.03C29.059 77.3033 28.799 77.52 28.4656 77.68C28.1323 77.84 27.7456 77.9367 27.3056 77.97L27.4656 77.8V79.15H26.7556ZM31.1317 78L34.5917 71.31L34.6117 71.7H30.6717V70.95H35.3517V71.59L32.0717 78H31.1317ZM39.1278 78.09C38.8211 78.09 38.5245 78.0567 38.2378 77.99C37.9511 77.9233 37.6845 77.8267 37.4378 77.7C37.1911 77.5733 36.9711 77.42 36.7778 77.24L37.1078 76.56C37.4211 76.8267 37.7411 77.0233 38.0678 77.15C38.3945 77.2767 38.7445 77.34 39.1178 77.34C39.6111 77.34 39.9945 77.2067 40.2678 76.94C40.5478 76.6733 40.6878 76.3133 40.6878 75.86C40.6878 75.4 40.5545 75.0267 40.2878 74.74C40.0278 74.4533 39.6678 74.31 39.2078 74.31C38.8811 74.31 38.5911 74.3767 38.3378 74.51C38.0845 74.6367 37.8545 74.8467 37.6478 75.14H36.9978V70.95H41.1478V71.69H37.8078V74.41H37.6678C37.8411 74.1567 38.0711 73.9567 38.3578 73.81C38.6511 73.6567 38.9811 73.58 39.3478 73.58C39.7945 73.58 40.1811 73.6733 40.5078 73.86C40.8345 74.0467 41.0845 74.3067 41.2578 74.64C41.4378 74.9733 41.5278 75.3633 41.5278 75.81C41.5278 76.27 41.4278 76.67 41.2278 77.01C41.0345 77.35 40.7578 77.6167 40.3978 77.81C40.0445 77.9967 39.6211 78.09 39.1278 78.09ZM45.0039 78.09C44.4639 78.09 44.0072 77.9533 43.6339 77.68C43.2672 77.4 42.9906 76.9933 42.8039 76.46C42.6172 75.92 42.5239 75.2567 42.5239 74.47C42.5239 73.6833 42.6172 73.0233 42.8039 72.49C42.9906 71.95 43.2672 71.5433 43.6339 71.27C44.0072 70.9967 44.4639 70.86 45.0039 70.86C45.5506 70.86 46.0072 70.9967 46.3739 71.27C46.7406 71.5433 47.0172 71.9467 47.2039 72.48C47.3906 73.0133 47.4839 73.6733 47.4839 74.46C47.4839 75.2467 47.3906 75.91 47.2039 76.45C47.0172 76.99 46.7372 77.4 46.3639 77.68C45.9972 77.9533 45.5439 78.09 45.0039 78.09ZM45.0039 77.35C45.5572 77.35 45.9672 77.1167 46.2339 76.65C46.5006 76.1767 46.6339 75.4467 46.6339 74.46C46.6339 73.4733 46.5006 72.75 46.2339 72.29C45.9739 71.83 45.5639 71.6 45.0039 71.6C44.4506 71.6 44.0406 71.8333 43.7739 72.3C43.5072 72.76 43.3739 73.4833 43.3739 74.47C43.3739 75.45 43.5072 76.1767 43.7739 76.65C44.0406 77.1167 44.4506 77.35 45.0039 77.35Z" fill="#7C8DB0"/>
<rect x="60" y="74.5" width="324" height="1" fill="#E9E8FC"/>
</g>
<g clip-path="url(#clip2_918_218)">
<rect width="32" height="16" transform="translate(16 110)" fill="white"/>
<path d="M26.7556 122.15V120.81L26.9456 120.98C26.4656 120.973 26.0123 120.903 25.5856 120.77C25.159 120.637 24.7856 120.433 24.4656 120.16L24.7756 119.47C24.989 119.643 25.2056 119.787 25.4256 119.9C25.6523 120.013 25.8956 120.1 26.1556 120.16C26.4156 120.213 26.7056 120.24 27.0256 120.24C27.5856 120.24 28.0023 120.133 28.2756 119.92C28.5556 119.7 28.6956 119.42 28.6956 119.08C28.6956 118.78 28.5923 118.547 28.3856 118.38C28.1856 118.207 27.859 118.077 27.4056 117.99L26.4056 117.8C25.8123 117.687 25.3656 117.483 25.0656 117.19C24.7656 116.897 24.6156 116.497 24.6156 115.99C24.6156 115.61 24.709 115.273 24.8956 114.98C25.089 114.68 25.3556 114.443 25.6956 114.27C26.0356 114.097 26.4323 114 26.8856 113.98L26.7556 114.12V112.8H27.4656V114.12L27.3256 113.98C27.6923 113.993 28.0556 114.07 28.4156 114.21C28.7823 114.35 29.0956 114.553 29.3556 114.82L29.0556 115.48C28.789 115.22 28.4923 115.027 28.1656 114.9C27.8456 114.773 27.4823 114.71 27.0756 114.71C26.5823 114.71 26.1856 114.827 25.8856 115.06C25.5923 115.293 25.4456 115.6 25.4456 115.98C25.4456 116.287 25.539 116.527 25.7256 116.7C25.9123 116.873 26.2123 117 26.6256 117.08L27.6356 117.27C28.2823 117.39 28.759 117.597 29.0656 117.89C29.379 118.183 29.5356 118.57 29.5356 119.05C29.5356 119.423 29.439 119.75 29.2456 120.03C29.059 120.303 28.799 120.52 28.4656 120.68C28.1323 120.84 27.7456 120.937 27.3056 120.97L27.4656 120.8V122.15H26.7556ZM33.1317 121.09C32.8251 121.09 32.5284 121.057 32.2417 120.99C31.9551 120.923 31.6884 120.827 31.4417 120.7C31.1951 120.573 30.9751 120.42 30.7817 120.24L31.1117 119.56C31.4251 119.827 31.7451 120.023 32.0717 120.15C32.3984 120.277 32.7484 120.34 33.1217 120.34C33.6151 120.34 33.9984 120.207 34.2717 119.94C34.5517 119.673 34.6917 119.313 34.6917 118.86C34.6917 118.4 34.5584 118.027 34.2917 117.74C34.0317 117.453 33.6717 117.31 33.2117 117.31C32.8851 117.31 32.5951 117.377 32.3417 117.51C32.0884 117.637 31.8584 117.847 31.6517 118.14H31.0017V113.95H35.1517V114.69H31.8117V117.41H31.6717C31.8451 117.157 32.0751 116.957 32.3617 116.81C32.6551 116.657 32.9851 116.58 33.3517 116.58C33.7984 116.58 34.1851 116.673 34.5117 116.86C34.8384 117.047 35.0884 117.307 35.2617 117.64C35.4417 117.973 35.5317 118.363 35.5317 118.81C35.5317 119.27 35.4317 119.67 35.2317 120.01C35.0384 120.35 34.7617 120.617 34.4017 120.81C34.0484 120.997 33.6251 121.09 33.1317 121.09ZM39.0078 121.09C38.4678 121.09 38.0111 120.953 37.6378 120.68C37.2711 120.4 36.9945 119.993 36.8078 119.46C36.6211 118.92 36.5278 118.257 36.5278 117.47C36.5278 116.683 36.6211 116.023 36.8078 115.49C36.9945 114.95 37.2711 114.543 37.6378 114.27C38.0111 113.997 38.4678 113.86 39.0078 113.86C39.5545 113.86 40.0111 113.997 40.3778 114.27C40.7445 114.543 41.0211 114.947 41.2078 115.48C41.3945 116.013 41.4878 116.673 41.4878 117.46C41.4878 118.247 41.3945 118.91 41.2078 119.45C41.0211 119.99 40.7411 120.4 40.3678 120.68C40.0011 120.953 39.5478 121.09 39.0078 121.09ZM39.0078 120.35C39.5611 120.35 39.9711 120.117 40.2378 119.65C40.5045 119.177 40.6378 118.447 40.6378 117.46C40.6378 116.473 40.5045 115.75 40.2378 115.29C39.9778 114.83 39.5678 114.6 39.0078 114.6C38.4545 114.6 38.0445 114.833 37.7778 115.3C37.5111 115.76 37.3778 116.483 37.3778 117.47C37.3778 118.45 37.5111 119.177 37.7778 119.65C38.0445 120.117 38.4545 120.35 39.0078 120.35ZM45.0039 121.09C44.4639 121.09 44.0072 120.953 43.6339 120.68C43.2672 120.4 42.9906 119.993 42.8039 119.46C42.6172 118.92 42.5239 118.257 42.5239 117.47C42.5239 116.683 42.6172 116.023 42.8039 115.49C42.9906 114.95 43.2672 114.543 43.6339 114.27C44.0072 113.997 44.4639 113.86 45.0039 113.86C45.5506 113.86 46.0072 113.997 46.3739 114.27C46.7406 114.543 47.0172 114.947 47.2039 115.48C47.3906 116.013 47.4839 116.673 47.4839 117.46C47.4839 118.247 47.3906 118.91 47.2039 119.45C47.0172 119.99 46.7372 120.4 46.3639 120.68C45.9972 120.953 45.5439 121.09 45.0039 121.09ZM45.0039 120.35C45.5572 120.35 45.9672 120.117 46.2339 119.65C46.5006 119.177 46.6339 118.447 46.6339 117.46C46.6339 116.473 46.5006 115.75 46.2339 115.29C45.9739 114.83 45.5639 114.6 45.0039 114.6C44.4506 114.6 44.0406 114.833 43.7739 115.3C43.5072 115.76 43.3739 116.483 43.3739 117.47C43.3739 118.45 43.5072 119.177 43.7739 119.65C44.0406 120.117 44.4506 120.35 45.0039 120.35Z" fill="#7C8DB0"/>
<rect x="60" y="117.5" width="324" height="1" fill="#E9E8FC"/>
</g>
<g clip-path="url(#clip3_918_218)">
<rect width="32" height="16" transform="translate(16 153)" fill="white"/>
<path d="M26.7556 165.15V163.81L26.9456 163.98C26.4656 163.973 26.0123 163.903 25.5856 163.77C25.159 163.637 24.7856 163.433 24.4656 163.16L24.7756 162.47C24.989 162.643 25.2056 162.787 25.4256 162.9C25.6523 163.013 25.8956 163.1 26.1556 163.16C26.4156 163.213 26.7056 163.24 27.0256 163.24C27.5856 163.24 28.0023 163.133 28.2756 162.92C28.5556 162.7 28.6956 162.42 28.6956 162.08C28.6956 161.78 28.5923 161.547 28.3856 161.38C28.1856 161.207 27.859 161.077 27.4056 160.99L26.4056 160.8C25.8123 160.687 25.3656 160.483 25.0656 160.19C24.7656 159.897 24.6156 159.497 24.6156 158.99C24.6156 158.61 24.709 158.273 24.8956 157.98C25.089 157.68 25.3556 157.443 25.6956 157.27C26.0356 157.097 26.4323 157 26.8856 156.98L26.7556 157.12V155.8H27.4656V157.12L27.3256 156.98C27.6923 156.993 28.0556 157.07 28.4156 157.21C28.7823 157.35 29.0956 157.553 29.3556 157.82L29.0556 158.48C28.789 158.22 28.4923 158.027 28.1656 157.9C27.8456 157.773 27.4823 157.71 27.0756 157.71C26.5823 157.71 26.1856 157.827 25.8856 158.06C25.5923 158.293 25.4456 158.6 25.4456 158.98C25.4456 159.287 25.539 159.527 25.7256 159.7C25.9123 159.873 26.2123 160 26.6256 160.08L27.6356 160.27C28.2823 160.39 28.759 160.597 29.0656 160.89C29.379 161.183 29.5356 161.57 29.5356 162.05C29.5356 162.423 29.439 162.75 29.2456 163.03C29.059 163.303 28.799 163.52 28.4656 163.68C28.1323 163.84 27.7456 163.937 27.3056 163.97L27.4656 163.8V165.15H26.7556ZM30.8717 164V163.36L33.3117 160.76C33.5451 160.507 33.7317 160.277 33.8717 160.07C34.0117 159.857 34.1117 159.65 34.1717 159.45C34.2317 159.25 34.2617 159.047 34.2617 158.84C34.2617 158.447 34.1384 158.143 33.8917 157.93C33.6517 157.717 33.3017 157.61 32.8417 157.61C32.5017 157.61 32.1717 157.677 31.8517 157.81C31.5317 157.937 31.2317 158.14 30.9517 158.42L30.6217 157.75C30.9017 157.477 31.2417 157.26 31.6417 157.1C32.0484 156.94 32.4717 156.86 32.9117 156.86C33.3784 156.86 33.7751 156.937 34.1017 157.09C34.4351 157.243 34.6884 157.463 34.8617 157.75C35.0351 158.037 35.1217 158.38 35.1217 158.78C35.1217 158.993 35.0951 159.2 35.0417 159.4C34.9951 159.6 34.9217 159.8 34.8217 160C34.7217 160.2 34.5917 160.407 34.4317 160.62C34.2784 160.827 34.0951 161.04 33.8817 161.26L31.8417 163.4V163.26H35.4117V164H30.8717ZM39.1278 164.09C38.8211 164.09 38.5245 164.057 38.2378 163.99C37.9511 163.923 37.6845 163.827 37.4378 163.7C37.1911 163.573 36.9711 163.42 36.7778 163.24L37.1078 162.56C37.4211 162.827 37.7411 163.023 38.0678 163.15C38.3945 163.277 38.7445 163.34 39.1178 163.34C39.6111 163.34 39.9945 163.207 40.2678 162.94C40.5478 162.673 40.6878 162.313 40.6878 161.86C40.6878 161.4 40.5545 161.027 40.2878 160.74C40.0278 160.453 39.6678 160.31 39.2078 160.31C38.8811 160.31 38.5911 160.377 38.3378 160.51C38.0845 160.637 37.8545 160.847 37.6478 161.14H36.9978V156.95H41.1478V157.69H37.8078V160.41H37.6678C37.8411 160.157 38.0711 159.957 38.3578 159.81C38.6511 159.657 38.9811 159.58 39.3478 159.58C39.7945 159.58 40.1811 159.673 40.5078 159.86C40.8345 160.047 41.0845 160.307 41.2578 160.64C41.4378 160.973 41.5278 161.363 41.5278 161.81C41.5278 162.27 41.4278 162.67 41.2278 163.01C41.0345 163.35 40.7578 163.617 40.3978 163.81C40.0445 163.997 39.6211 164.09 39.1278 164.09ZM45.0039 164.09C44.4639 164.09 44.0072 163.953 43.6339 163.68C43.2672 163.4 42.9906 162.993 42.8039 162.46C42.6172 161.92 42.5239 161.257 42.5239 160.47C42.5239 159.683 42.6172 159.023 42.8039 158.49C42.9906 157.95 43.2672 157.543 43.6339 157.27C44.0072 156.997 44.4639 156.86 45.0039 156.86C45.5506 156.86 46.0072 156.997 46.3739 157.27C46.7406 157.543 47.0172 157.947 47.2039 158.48C47.3906 159.013 47.4839 159.673 47.4839 160.46C47.4839 161.247 47.3906 161.91 47.2039 162.45C47.0172 162.99 46.7372 163.4 46.3639 163.68C45.9972 163.953 45.5439 164.09 45.0039 164.09ZM45.0039 163.35C45.5572 163.35 45.9672 163.117 46.2339 162.65C46.5006 162.177 46.6339 161.447 46.6339 160.46C46.6339 159.473 46.5006 158.75 46.2339 158.29C45.9739 157.83 45.5639 157.6 45.0039 157.6C44.4506 157.6 44.0406 157.833 43.7739 158.3C43.5072 158.76 43.3739 159.483 43.3739 160.47C43.3739 161.45 43.5072 162.177 43.7739 162.65C44.0406 163.117 44.4506 163.35 45.0039 163.35Z" fill="#7C8DB0"/>
<rect x="60" y="160.5" width="324" height="1" fill="#E9E8FC"/>
</g>
<path d="M102.053 48.2802C88.1423 47.5333 78.5923 51.0877 68.0352 55.017V158.316H363.636V83.0872C354.101 91.5977 343.829 93.1925 330.792 93.1925C316.129 93.1925 312.61 69.6135 297.947 69.6135C284.119 69.6135 280.104 84.7714 266.276 84.7714C251.026 84.7714 252.738 49.403 233.431 49.403C218.768 49.403 213.977 55.017 201.173 55.017C185.924 55.017 183.578 29.7533 167.742 29.7539C150.238 29.7544 152.401 58.9468 134.897 58.9468C120.235 58.9468 115.73 49.0145 102.053 48.2802Z" fill="url(#paint0_linear_918_218)"/>
<path d="M70.3809 55.0176C70.3809 55.0176 85.0436 48.2807 102.052 48.2807C117.302 48.2807 119.061 58.9474 134.897 58.9474C152.401 58.9474 150.241 30.0597 167.742 29.7544C184.373 29.4643 184.539 55.0186 201.173 55.0176C213.489 55.0168 220.527 49.4035 233.431 49.4035C252.737 49.4035 251.026 84.7719 266.275 84.7719C280.104 84.7719 284.118 69.614 297.947 69.614C311.437 69.614 315.542 93.193 330.791 93.193C343.829 93.193 352.927 91.5982 362.463 83.0877" stroke="#605DEC" stroke-width="2" stroke-linecap="round"/>
<defs>
<linearGradient id="paint0_linear_918_218" x1="216.422" y1="29.1925" x2="216.422" y2="158.315" gradientUnits="userSpaceOnUse">
<stop stop-color="#A5A4F4"/>
<stop offset="0.442708" stop-color="#C3C2F8" stop-opacity="0.328125"/>
<stop offset="1" stop-color="#D2D1FA" stop-opacity="0"/>
</linearGradient>
<clipPath id="clip0_918_218">
<rect width="368" height="16" fill="white" transform="translate(16 24)"/>
</clipPath>
<clipPath id="clip1_918_218">
<rect width="368" height="16" fill="white" transform="translate(16 67)"/>
</clipPath>
<clipPath id="clip2_918_218">
<rect width="368" height="16" fill="white" transform="translate(16 110)"/>
</clipPath>
<clipPath id="clip3_918_218">
<rect width="368" height="16" fill="white" transform="translate(16 153)"/>
</clipPath>
</defs>
</svg>
