<svg width="121" height="32" viewBox="0 0 121 32" fill="none" xmlns="http://www.w3.org/2000/svg">
<path d="M12.242 11.6829C12.4376 11.3683 12.8956 11.3683 13.0912 11.6829L15.5746 15.6771C15.6434 15.7878 15.7528 15.8672 15.8794 15.8985L20.4454 17.0261C20.8051 17.1149 20.9466 17.5504 20.7078 17.8337L17.6766 21.4298C17.5926 21.5295 17.5508 21.658 17.5602 21.788L17.8988 26.4791C17.9255 26.8486 17.555 27.1178 17.2118 26.9782L12.855 25.2066C12.7342 25.1575 12.599 25.1575 12.4783 25.2066L8.1215 26.9782C7.77828 27.1178 7.40778 26.8486 7.43446 26.4791L7.77307 21.788C7.78245 21.658 7.74068 21.5295 7.65667 21.4298L4.62542 17.8337C4.38661 17.5504 4.52813 17.1149 4.88784 17.0261L9.4539 15.8985C9.58046 15.8672 9.68981 15.7878 9.75864 15.6771L12.242 11.6829Z" fill="url(#paint0_linear_2671_1846)"/>
<path d="M36.242 11.6829C36.4376 11.3683 36.8956 11.3683 37.0912 11.6829L39.5746 15.6771C39.6434 15.7878 39.7528 15.8672 39.8794 15.8985L44.4454 17.0261C44.8051 17.1149 44.9466 17.5504 44.7078 17.8337L41.6766 21.4298C41.5926 21.5295 41.5508 21.658 41.5602 21.788L41.8988 26.4791C41.9255 26.8486 41.555 27.1178 41.2118 26.9782L36.855 25.2066C36.7342 25.1575 36.599 25.1575 36.4783 25.2066L32.1215 26.9782C31.7783 27.1178 31.4078 26.8486 31.4345 26.4791L31.7731 21.788C31.7825 21.658 31.7407 21.5295 31.6567 21.4298L28.6254 17.8337C28.3866 17.5504 28.5281 17.1149 28.8878 17.0261L33.4539 15.8985C33.5805 15.8672 33.6898 15.7878 33.7586 15.6771L36.242 11.6829Z" fill="url(#paint1_linear_2671_1846)"/>
<path d="M60.242 11.6829C60.4376 11.3683 60.8956 11.3683 61.0912 11.6829L63.5746 15.6771C63.6434 15.7878 63.7528 15.8672 63.8794 15.8985L68.4454 17.0261C68.8051 17.1149 68.9466 17.5504 68.7078 17.8337L65.6766 21.4298C65.5926 21.5295 65.5508 21.658 65.5602 21.788L65.8988 26.4791C65.9255 26.8486 65.555 27.1178 65.2118 26.9782L60.855 25.2066C60.7342 25.1575 60.599 25.1575 60.4783 25.2066L56.1215 26.9782C55.7783 27.1178 55.4078 26.8486 55.4345 26.4791L55.7731 21.788C55.7825 21.658 55.7407 21.5295 55.6567 21.4298L52.6254 17.8337C52.3866 17.5504 52.5281 17.1149 52.8878 17.0261L57.4539 15.8985C57.5805 15.8672 57.6898 15.7878 57.7586 15.6771L60.242 11.6829Z" fill="url(#paint2_linear_2671_1846)"/>
<path d="M84.242 11.6829C84.4376 11.3683 84.8956 11.3683 85.0912 11.6829L87.5746 15.6771C87.6434 15.7878 87.7528 15.8672 87.8794 15.8985L92.4454 17.0261C92.8051 17.1149 92.9466 17.5504 92.7078 17.8337L89.6766 21.4298C89.5926 21.5295 89.5508 21.658 89.5602 21.788L89.8988 26.4791C89.9255 26.8486 89.555 27.1178 89.2118 26.9782L84.855 25.2066C84.7342 25.1575 84.599 25.1575 84.4783 25.2066L80.1215 26.9782C79.7783 27.1178 79.4078 26.8486 79.4345 26.4791L79.7731 21.788C79.7825 21.658 79.7407 21.5295 79.6567 21.4298L76.6254 17.8337C76.3866 17.5504 76.5281 17.1149 76.8878 17.0261L81.4539 15.8985C81.5805 15.8672 81.6898 15.7878 81.7586 15.6771L84.242 11.6829Z" fill="url(#paint3_linear_2671_1846)"/>
<path d="M110.725 16.2051C110.932 16.5371 111.26 16.7753 111.639 16.8691L115.424 17.8037L112.912 20.7852C112.66 21.0842 112.535 21.4703 112.563 21.8604L112.842 25.748L109.232 24.2803L109.094 24.2314C108.815 24.1485 108.518 24.1485 108.239 24.2314L108.101 24.2803L104.49 25.748L104.77 21.8604C104.798 21.4703 104.674 21.0842 104.422 20.7852L101.908 17.8037L105.694 16.8691C106.074 16.7753 106.402 16.5371 106.608 16.2051L108.667 12.8936L110.725 16.2051Z" stroke="url(#paint4_linear_2671_1846)" stroke-width="2"/>
<defs>
<linearGradient id="paint0_linear_2671_1846" x1="12.6666" y1="11" x2="12.6666" y2="29" gradientUnits="userSpaceOnUse">
<stop stop-color="#605DEC"/>
<stop offset="1" stop-color="#2A26D9"/>
</linearGradient>
<linearGradient id="paint1_linear_2671_1846" x1="36.6666" y1="11" x2="36.6666" y2="29" gradientUnits="userSpaceOnUse">
<stop stop-color="#605DEC"/>
<stop offset="1" stop-color="#2A26D9"/>
</linearGradient>
<linearGradient id="paint2_linear_2671_1846" x1="60.6666" y1="11" x2="60.6666" y2="29" gradientUnits="userSpaceOnUse">
<stop stop-color="#605DEC"/>
<stop offset="1" stop-color="#2A26D9"/>
</linearGradient>
<linearGradient id="paint3_linear_2671_1846" x1="84.6666" y1="11" x2="84.6666" y2="29" gradientUnits="userSpaceOnUse">
<stop stop-color="#605DEC"/>
<stop offset="1" stop-color="#2A26D9"/>
</linearGradient>
<linearGradient id="paint4_linear_2671_1846" x1="108.667" y1="11" x2="108.667" y2="29" gradientUnits="userSpaceOnUse">
<stop stop-color="#605DEC"/>
<stop offset="1" stop-color="#2A26D9"/>
</linearGradient>
</defs>
</svg>
