<svg width="76" height="24" viewBox="0 0 76 24" fill="none" xmlns="http://www.w3.org/2000/svg">
<g clip-path="url(#clip0_2853_11947)">
<path d="M32.9329 23.654H26.7764L30.6271 0.421387H36.7833L32.9329 23.654Z" fill="white"/>
<path d="M55.2511 0.989106C54.0368 0.519026 52.1107 0 49.7292 0C43.6494 0 39.3681 3.16343 39.3418 7.68618C39.2913 11.0231 42.4071 12.8764 44.7375 13.9891C47.1194 15.126 47.9291 15.8681 47.9291 16.8815C47.9048 18.4379 46.0044 19.1553 44.2318 19.1553C41.7739 19.1553 40.4569 18.7854 38.4554 17.9195L37.6447 17.5483L36.7832 22.7635C38.2271 23.4054 40.8874 23.975 43.6494 24C50.1093 24 54.3149 20.8855 54.3647 16.0658C54.3893 13.4211 52.744 11.3946 49.1969 9.73863C47.0436 8.67561 45.7249 7.95883 45.7249 6.87118C45.7502 5.8824 46.8403 4.86964 49.271 4.86964C51.2725 4.82004 52.743 5.28946 53.857 5.75921L54.4138 6.00591L55.2511 0.989106Z" fill="white"/>
<path d="M63.4334 15.4235C63.9404 14.0888 65.8913 8.92322 65.8913 8.92322C65.8658 8.97283 66.3973 7.5639 66.7014 6.69897L67.1316 8.70083C67.1316 8.70083 68.2975 14.262 68.5506 15.4235C67.5885 15.4235 64.6494 15.4235 63.4334 15.4235ZM71.0328 0.421387H66.2708C64.8022 0.421387 63.6865 0.841206 63.0529 2.34901L53.9082 23.6537H60.3681C60.3681 23.6537 61.4316 20.7862 61.6602 20.1687C62.3689 20.1687 68.653 20.1687 69.5647 20.1687C69.7414 20.9843 70.2993 23.6537 70.2993 23.6537H75.9996L71.0328 0.421387Z" fill="white"/>
<path d="M21.6345 0.421387L15.6052 16.2638L14.9464 13.0508C13.8317 9.34337 10.3358 5.31534 6.43457 3.31249L11.9572 23.6294H18.4675L28.1445 0.421387H21.6345Z" fill="white"/>
<path d="M10.0066 0.421387H0.101335L0 0.890809C7.72672 2.81876 12.844 7.46601 14.9464 13.0518L12.7931 2.3743C12.4386 0.890481 11.3492 0.470333 10.0066 0.421387Z" fill="white"/>
</g>
<defs>
<clipPath id="clip0_2853_11947">
<rect width="76" height="24" fill="white"/>
</clipPath>
</defs>
</svg>
